<svg width="326" height="52" viewBox="0 0 326 52" fill="none" xmlns="http://www.w3.org/2000/svg">
<g clip-path="url(#clip0_407_383)">
<path d="M52.539 0V45.8014L42.117 27.9375L0 52L52.539 0Z" fill="white"/>
<path d="M56.3581 52V6.19858L66.7764 24.0625L108.893 0L56.3581 52Z" fill="white"/>
<path d="M112.624 27.8131H104.634L103.547 30.283H97.3364L107.274 8.85145H109.969L119.922 30.283H113.7L112.624 27.8131ZM110.82 23.7039L108.631 18.6872L106.427 23.7039H110.82Z" fill="white"/>
<path d="M137.42 9.11491L127.56 30.5062H124.987L115.167 9.11491H121.312L126.247 20.579L131.198 9.11491H137.42Z" fill="white"/>
<path d="M153.218 27.0666H143.095L141.635 30.283H138L148.056 8.67947H148.256L158.312 30.283H154.678L153.218 27.0666ZM151.92 24.2162L148.164 15.9429L144.396 24.2162H151.92Z" fill="white"/>
<path d="M158.512 22.2585V9.11491H161.883V22.2476C161.883 25.1749 163.965 27.3155 166.579 27.3155C169.193 27.3155 171.304 25.1749 171.304 22.2476V9.11491H174.686V22.2585C174.686 27.1179 171.145 30.6745 166.594 30.6745C162.039 30.6782 158.512 27.1179 158.512 22.2585Z" fill="white"/>
<path d="M191.985 12.4118H186.255V30.283H182.883V12.4118H177.152V9.11491H191.985V12.4118Z" fill="white"/>
<path d="M192.565 19.7264C192.565 13.6852 197.527 8.749 203.616 8.749C209.694 8.749 214.681 13.6852 214.681 19.7264C214.681 25.7164 209.694 30.627 203.601 30.627C197.527 30.627 192.565 25.7128 192.565 19.7264ZM211.287 19.7008C211.287 15.5111 207.823 12.0971 203.605 12.0971C199.387 12.0971 195.948 15.5111 195.948 19.7008C195.948 23.8649 199.383 27.2642 203.605 27.2642C207.823 27.2642 211.287 23.8612 211.287 19.7008Z" fill="white"/>
<path d="M238.709 8.65386V30.283H235.352V18.5445L228.253 29.9317H228.227L221.114 18.5335V30.2867H217.757V8.65386H218.009L228.238 24.0442L238.453 8.65386H238.709Z" fill="white"/>
<path d="M256.284 27.0666H246.162L244.701 30.283H241.067L251.123 8.67947H251.323L261.379 30.283H257.745L256.284 27.0666ZM254.983 24.2162L251.227 15.9429L247.46 24.2162H254.983Z" fill="white"/>
<path d="M274.5 12.4118H268.769V30.283H265.398V12.4118H259.667V9.11491H274.5V12.4118Z" fill="white"/>
<path d="M277.165 9.11491H280.522V30.283H277.165V9.11491Z" fill="white"/>
<path d="M283.609 19.7264C283.609 13.6852 288.571 8.749 294.664 8.749C300.742 8.749 305.729 13.6852 305.729 19.7264C305.729 25.7164 300.742 30.627 294.649 30.627C288.575 30.627 283.609 25.7128 283.609 19.7264ZM302.331 19.7008C302.331 15.5111 298.867 12.0971 294.649 12.0971C290.431 12.0971 286.992 15.5111 286.992 19.7008C286.992 23.8649 290.427 27.2642 294.649 27.2642C298.871 27.2642 302.331 23.8612 302.331 19.7008Z" fill="white"/>
<path d="M326 9.06368V30.6526H325.841L312.162 16.51V30.3123H308.805V8.74534H308.979L322.632 22.8623V9.06368H326Z" fill="white"/>
<path d="M102.331 41.9776H99.3587L98.793 43.3352H97.2735L100.128 37.0012H101.592L104.453 43.3352H102.9L102.331 41.9776ZM101.862 40.8652L100.845 38.4392L99.8282 40.8652H101.862Z" fill="white"/>
<path d="M108.295 42.6948C107.784 42.1935 107.529 41.48 107.529 40.5506V37.0012H109.012V40.4957C109.012 41.63 109.489 42.1972 110.439 42.1972C110.901 42.1972 111.256 42.0581 111.5 41.7837C111.744 41.5093 111.866 41.0811 111.866 40.4957V37.0012H113.33V40.5506C113.33 41.48 113.075 42.1935 112.565 42.6948C112.054 43.1961 111.345 43.4449 110.428 43.4449C109.518 43.4449 108.805 43.1961 108.295 42.6948Z" fill="white"/>
<path d="M118.587 38.1941H116.539V37.0012H122.118V38.1941H120.07V43.3352H118.587V38.1941Z" fill="white"/>
<path d="M126.684 43.0205C126.151 42.7351 125.734 42.3472 125.43 41.8496C125.127 41.3519 124.979 40.7921 124.979 40.17C124.979 39.548 125.131 38.9881 125.43 38.4905C125.73 37.9928 126.151 37.6013 126.684 37.3195C127.216 37.0378 127.815 36.8951 128.48 36.8951C129.146 36.8951 129.741 37.0378 130.274 37.3195C130.802 37.605 131.22 37.9928 131.527 38.4905C131.83 38.9881 131.985 39.548 131.985 40.17C131.985 40.7921 131.834 41.3519 131.527 41.8496C131.224 42.3472 130.806 42.7387 130.274 43.0205C129.745 43.3022 129.146 43.4449 128.48 43.4449C127.815 43.4449 127.22 43.3022 126.684 43.0205ZM129.505 41.9374C129.808 41.7654 130.048 41.5239 130.222 41.2165C130.396 40.9092 130.484 40.5579 130.484 40.1663C130.484 39.7748 130.399 39.4235 130.222 39.1162C130.048 38.8088 129.808 38.5673 129.505 38.3953C129.201 38.2233 128.858 38.1355 128.48 38.1355C128.103 38.1355 127.76 38.2233 127.456 38.3953C127.153 38.5673 126.913 38.8052 126.739 39.1162C126.565 39.4235 126.477 39.7748 126.477 40.1663C126.477 40.5579 126.562 40.9092 126.739 41.2165C126.913 41.5239 127.153 41.7654 127.456 41.9374C127.76 42.1094 128.103 42.1972 128.48 42.1972C128.858 42.1972 129.201 42.1094 129.505 41.9374Z" fill="white"/>
<path d="M141.394 43.3352L141.387 39.5333L139.501 42.6655H138.832L136.958 39.6138V43.3352H135.568V37.0012H136.791L139.187 40.9384L141.546 37.0012H142.762L142.781 43.3352H141.394Z" fill="white"/>
<path d="M150.985 41.9776H148.012L147.446 43.3352H145.927L148.781 37.0012H150.245L153.107 43.3352H151.554L150.985 41.9776ZM150.519 40.8652L149.502 38.4392L148.485 40.8652H150.519Z" fill="white"/>
<path d="M157.569 38.1941H155.521V37.0012H161.1V38.1941H159.052V43.3352H157.569V38.1941Z" fill="white"/>
<path d="M169.322 42.1606V43.3388H164.364V37.0049H169.2V38.1794H165.836V39.5553H168.808V40.6969H165.836V42.1642H169.322V42.1606Z" fill="white"/>
<path d="M172.775 43.1559C172.605 42.9875 172.52 42.7753 172.52 42.5228C172.52 42.263 172.605 42.0545 172.775 41.8935C172.945 41.7325 173.156 41.652 173.407 41.652C173.659 41.652 173.869 41.7325 174.039 41.8935C174.21 42.0545 174.295 42.263 174.295 42.5228C174.295 42.7753 174.21 42.9875 174.039 43.1559C173.869 43.3242 173.659 43.4083 173.407 43.4083C173.156 43.4083 172.949 43.3242 172.775 43.1559Z" fill="white"/>
<path d="M187.848 42.1606V43.3388H182.89V37.0049H187.726V38.1794H184.362V39.5553H187.334V40.6969H184.362V42.1642H187.848V42.1606Z" fill="white"/>
<path d="M191.493 37.0012H192.976V42.1423H196.185V43.3352H191.493V37.0012Z" fill="white"/>
<path d="M204.444 42.1606V43.3388H199.486V37.0049H204.322V38.1794H200.958V39.5553H203.93V40.6969H200.958V42.1642H204.444V42.1606Z" fill="white"/>
<path d="M214.245 37.0012L211.472 43.3352H210.008L207.246 37.0012H208.847L210.796 41.5275L212.77 37.0012H214.245Z" fill="white"/>
<path d="M221.599 41.9776H218.626L218.06 43.3352H216.541L219.395 37.0012H220.859L223.721 43.3352H222.168L221.599 41.9776ZM221.133 40.8652L220.116 38.4392L219.099 40.8652H221.133Z" fill="white"/>
<path d="M228.183 38.1941H226.135V37.0012H231.714V38.1941H229.666V43.3352H228.183V38.1941Z" fill="white"/>
<path d="M239.932 42.1606V43.3388H234.974V37.0049H239.81V38.1794H236.446V39.5553H239.418V40.6969H236.446V42.1642H239.932V42.1606Z" fill="white"/>
<path d="M243.389 43.1559C243.219 42.9875 243.134 42.7753 243.134 42.5228C243.134 42.263 243.219 42.0545 243.389 41.8935C243.559 41.7325 243.77 41.652 244.021 41.652C244.273 41.652 244.483 41.7325 244.653 41.8935C244.823 42.0545 244.909 42.263 244.909 42.5228C244.909 42.7753 244.823 42.9875 244.653 43.1559C244.483 43.3242 244.273 43.4083 244.021 43.4083C243.77 43.4083 243.559 43.3242 243.389 43.1559Z" fill="white"/>
<path d="M253.5 37.0012H254.983V43.3352H253.5V37.0012Z" fill="white"/>
<path d="M264.839 37.0012V43.3352H263.623L260.432 39.4894V43.3352H258.968V37.0012H260.192L263.375 40.8469V37.0012H264.839Z" fill="white"/>
<path d="M274.699 37.0012V43.3352H273.483L270.293 39.4894V43.3352H268.829V37.0012H270.052L273.235 40.8469V37.0012H274.699Z" fill="white"/>
<path d="M279.986 43.0205C279.454 42.7351 279.036 42.3472 278.733 41.8496C278.43 41.3519 278.282 40.7921 278.282 40.17C278.282 39.548 278.434 38.9881 278.733 38.4905C279.036 37.9928 279.454 37.6013 279.986 37.3195C280.519 37.0378 281.118 36.8951 281.783 36.8951C282.449 36.8951 283.044 37.0378 283.576 37.3195C284.105 37.605 284.523 37.9928 284.829 38.4905C285.136 38.9881 285.288 39.548 285.288 40.17C285.288 40.7921 285.136 41.3519 284.829 41.8496C284.523 42.3472 284.109 42.7387 283.576 43.0205C283.047 43.3022 282.449 43.4449 281.783 43.4449C281.118 43.4449 280.522 43.3022 279.986 43.0205ZM282.811 41.9374C283.114 41.7654 283.354 41.5239 283.528 41.2165C283.702 40.9092 283.791 40.5579 283.791 40.1663C283.791 39.7748 283.702 39.4235 283.528 39.1162C283.354 38.8088 283.114 38.5673 282.811 38.3953C282.504 38.2233 282.164 38.1355 281.787 38.1355C281.41 38.1355 281.066 38.2233 280.763 38.3953C280.456 38.5673 280.219 38.8052 280.045 39.1162C279.872 39.4235 279.783 39.7748 279.783 40.1663C279.783 40.5579 279.872 40.9092 280.045 41.2165C280.219 41.5239 280.46 41.7654 280.763 41.9374C281.066 42.1094 281.41 42.1972 281.787 42.1972C282.164 42.1972 282.504 42.1094 282.811 41.9374Z" fill="white"/>
<path d="M295.026 37.0012L292.253 43.3352H290.789L288.027 37.0012H289.628L291.577 41.5275L293.551 37.0012H295.026Z" fill="white"/>
<path d="M302.376 41.9776H299.403L298.838 43.3352H297.318L300.172 37.0012H301.636L304.498 43.3352H302.945L302.376 41.9776ZM301.91 40.8652L300.893 38.4392L299.877 40.8652H301.91Z" fill="white"/>
<path d="M308.96 38.1941H306.912V37.0012H312.491V38.1941H310.443V43.3352H308.96V38.1941Z" fill="white"/>
<path d="M320.713 42.1606V43.3388H315.755V37.0049H320.591V38.1794H317.227V39.5553H320.199V40.6969H317.227V42.1642H320.713V42.1606Z" fill="white"/>
<path d="M324.17 43.1559C324 42.9875 323.915 42.7753 323.915 42.5228C323.915 42.263 324 42.0545 324.17 41.8935C324.34 41.7325 324.551 41.652 324.802 41.652C325.054 41.652 325.264 41.7325 325.434 41.8935C325.604 42.0545 325.689 42.263 325.689 42.5228C325.689 42.7753 325.604 42.9875 325.434 43.1559C325.264 43.3242 325.054 43.4083 324.802 43.4083C324.551 43.4083 324.34 43.3242 324.17 43.1559Z" fill="white"/>
</g>
<defs>
<clipPath id="clip0_407_383">
<rect width="326" height="52" fill="white"/>
</clipPath>
</defs>
</svg>
