<svg width="316" height="51" viewBox="0 0 316 51" fill="none" xmlns="http://www.w3.org/2000/svg">
<path d="M50.9274 0V44.9206L40.8251 27.4003L0 51L50.9274 0Z" fill="#5A5F63"/>
<path d="M54.6293 51V6.07938L64.7281 23.5997L105.553 0L54.6293 51Z" fill="#00838F"/>
<path d="M109.169 27.2777H101.425L100.371 29.7001H94.3506L103.983 8.68066H106.596L116.243 29.7001H110.212L109.169 27.2777ZM107.42 23.2475L105.299 18.3273L103.163 23.2475H107.42Z" fill="#5A5F63"/>
<path d="M133.205 8.93945L123.647 29.9194H121.153L111.635 8.93945H117.591L122.375 20.1831L127.173 8.93945H133.205Z" fill="#5A5F63"/>
<path d="M148.518 26.5463H138.706L137.29 29.7008H133.767L143.515 8.5127H143.708L153.456 29.7008H149.933L148.518 26.5463ZM147.26 23.7506L143.619 15.6364L139.967 23.7506H147.26Z" fill="#5A5F63"/>
<path d="M153.649 21.8303V8.93945H156.918V21.8195C156.918 24.6906 158.935 26.79 161.469 26.79C164.003 26.79 166.049 24.6906 166.049 21.8195V8.93945H169.328V21.8303C169.328 26.5962 165.895 30.0845 161.483 30.0845C157.068 30.0881 153.649 26.5962 153.649 21.8303Z" fill="#5A5F63"/>
<path d="M186.096 12.1729H180.541V29.7005H177.273V12.1729H171.718V8.93945H186.096V12.1729Z" fill="#5A5F63"/>
<path d="M186.659 19.3474C186.659 13.4223 191.468 8.58105 197.37 8.58105C203.262 8.58105 208.096 13.4223 208.096 19.3474C208.096 25.2222 203.262 30.0383 197.356 30.0383C191.468 30.0383 186.659 25.2186 186.659 19.3474ZM204.806 19.3222C204.806 15.2131 201.448 11.8648 197.359 11.8648C193.27 11.8648 189.938 15.2131 189.938 19.3222C189.938 23.4063 193.267 26.7402 197.359 26.7402C201.448 26.7402 204.806 23.4027 204.806 19.3222Z" fill="#5A5F63"/>
<path d="M231.386 8.4873V29.7005H228.132V18.1877L221.252 29.356H221.227L214.332 18.177V29.7041H211.078V8.4873H211.321L221.237 23.5817L231.139 8.4873H231.386Z" fill="#5A5F63"/>
<path d="M248.423 26.5463H238.611L237.195 29.7008H233.673L243.42 8.5127H243.614L253.361 29.7008H249.838L248.423 26.5463ZM247.161 23.7506L243.52 15.6364L239.869 23.7506H247.161Z" fill="#5A5F63"/>
<path d="M266.08 12.1729H260.525V29.7005H257.257V12.1729H251.702V8.93945H266.08V12.1729Z" fill="#5A5F63"/>
<path d="M268.663 8.93945H271.917V29.7005H268.663V8.93945Z" fill="#5A5F63"/>
<path d="M274.91 19.3474C274.91 13.4223 279.719 8.58105 285.625 8.58105C291.516 8.58105 296.351 13.4223 296.351 19.3474C296.351 25.2222 291.516 30.0383 285.611 30.0383C279.723 30.0383 274.91 25.2186 274.91 19.3474ZM293.057 19.3222C293.057 15.2131 289.699 11.8648 285.611 11.8648C281.522 11.8648 278.189 15.2131 278.189 19.3222C278.189 23.4063 281.518 26.7402 285.611 26.7402C289.703 26.7402 293.057 23.4027 293.057 19.3222Z" fill="#5A5F63"/>
<path d="M316 8.88937V30.0631H315.846L302.586 16.1925V29.7294H299.332V8.57715H299.501L312.735 22.4226V8.88937H316Z" fill="#5A5F63"/>
<path d="M99.1921 41.1708H96.3109L95.7626 42.5022H94.2897L97.0563 36.29H98.4754L101.249 42.5022H99.744L99.1921 41.1708ZM98.737 40.0798L97.7515 37.7004L96.766 40.0798H98.737Z" fill="#00838F"/>
<path d="M104.973 41.8742C104.478 41.3825 104.231 40.6827 104.231 39.7711V36.29H105.668V39.7173C105.668 40.8298 106.13 41.3861 107.051 41.3861C107.499 41.3861 107.843 41.2497 108.08 40.9806C108.316 40.7114 108.434 40.2915 108.434 39.7173V36.29H109.854V39.7711C109.854 40.6827 109.606 41.3825 109.112 41.8742C108.617 42.3658 107.929 42.6099 107.04 42.6099C106.159 42.6099 105.467 42.3658 104.973 41.8742Z" fill="#00838F"/>
<path d="M114.949 37.46H112.964V36.29H118.372V37.46H116.387V42.5022H114.949V37.46Z" fill="#00838F"/>
<path d="M122.798 42.1931C122.282 41.9132 121.877 41.5328 121.583 41.0447C121.289 40.5567 121.146 40.0076 121.146 39.3975C121.146 38.7874 121.293 38.2383 121.583 37.7503C121.873 37.2622 122.282 36.8782 122.798 36.6018C123.314 36.3255 123.894 36.1855 124.539 36.1855C125.184 36.1855 125.761 36.3255 126.277 36.6018C126.79 36.8818 127.195 37.2622 127.492 37.7503C127.786 38.2383 127.937 38.7874 127.937 39.3975C127.937 40.0076 127.79 40.5567 127.492 41.0447C127.198 41.5328 126.793 41.9168 126.277 42.1931C125.765 42.4695 125.184 42.6094 124.539 42.6094C123.894 42.6094 123.317 42.4695 122.798 42.1931ZM125.532 41.1309C125.826 40.9622 126.059 40.7253 126.227 40.4239C126.396 40.1224 126.482 39.7779 126.482 39.3939C126.482 39.0099 126.399 38.6654 126.227 38.3639C126.059 38.0625 125.826 37.8256 125.532 37.6569C125.238 37.4883 124.905 37.4021 124.539 37.4021C124.174 37.4021 123.841 37.4883 123.547 37.6569C123.253 37.8256 123.02 38.0589 122.851 38.3639C122.683 38.6654 122.597 39.0099 122.597 39.3939C122.597 39.7779 122.679 40.1224 122.851 40.4239C123.02 40.7253 123.253 40.9622 123.547 41.1309C123.841 41.2995 124.174 41.3857 124.539 41.3857C124.905 41.3857 125.238 41.2995 125.532 41.1309Z" fill="#00838F"/>
<path d="M137.057 42.5022L137.05 38.7735L135.222 41.8455H134.574L132.757 38.8524V42.5022H131.409V36.29H132.595L134.918 40.1516L137.204 36.29H138.383L138.401 42.5022H137.057Z" fill="#00838F"/>
<path d="M146.353 41.1708H143.472L142.924 42.5022H141.451L144.217 36.29H145.636L148.41 42.5022H146.905L146.353 41.1708ZM145.902 40.0798L144.916 37.7004L143.931 40.0798H145.902Z" fill="#00838F"/>
<path d="M152.736 37.46H150.75V36.29H156.158V37.46H154.173V42.5022H152.736V37.46Z" fill="#00838F"/>
<path d="M164.128 41.3495V42.5051H159.322V36.293H164.01V37.445H160.749V38.7943H163.63V39.914H160.749V41.3531H164.128V41.3495Z" fill="#00838F"/>
<path d="M167.475 42.3256C167.31 42.1605 167.228 41.9523 167.228 41.7047C167.228 41.4499 167.31 41.2453 167.475 41.0874C167.64 40.9295 167.844 40.8506 168.088 40.8506C168.332 40.8506 168.536 40.9295 168.701 41.0874C168.866 41.2453 168.948 41.4499 168.948 41.7047C168.948 41.9523 168.866 42.1605 168.701 42.3256C168.536 42.4907 168.332 42.5732 168.088 42.5732C167.844 42.5732 167.644 42.4907 167.475 42.3256Z" fill="#00838F"/>
<path d="M182.086 41.3495V42.5051H177.28V36.293H181.968V37.445H178.706V38.7943H181.588V39.914H178.706V41.3531H182.086V41.3495Z" fill="#00838F"/>
<path d="M185.619 36.29H187.056V41.3323H190.167V42.5022H185.619V36.29Z" fill="#00838F"/>
<path d="M198.173 41.3495V42.5051H193.367V36.293H198.055V37.445H194.793V38.7943H197.675V39.914H194.793V41.3531H198.173V41.3495Z" fill="#00838F"/>
<path d="M207.673 36.29L204.985 42.5022H203.566L200.889 36.29H202.441L204.33 40.7293L206.243 36.29H207.673Z" fill="#00838F"/>
<path d="M214.801 41.1708H211.92L211.371 42.5022H209.899L212.665 36.29H214.084L216.858 42.5022H215.353L214.801 41.1708ZM214.349 40.0798L213.364 37.7004L212.378 40.0798H214.349Z" fill="#00838F"/>
<path d="M221.184 37.46H219.198V36.29H224.606V37.46H222.621V42.5022H221.184V37.46Z" fill="#00838F"/>
<path d="M232.572 41.3495V42.5051H227.767V36.293H232.454V37.445H229.193V38.7943H232.074V39.914H229.193V41.3531H232.572V41.3495Z" fill="#00838F"/>
<path d="M235.923 42.3256C235.758 42.1605 235.676 41.9523 235.676 41.7047C235.676 41.4499 235.758 41.2453 235.923 41.0874C236.088 40.9295 236.292 40.8506 236.536 40.8506C236.78 40.8506 236.984 40.9295 237.149 41.0874C237.314 41.2453 237.396 41.4499 237.396 41.7047C237.396 41.9523 237.314 42.1605 237.149 42.3256C236.984 42.4907 236.78 42.5732 236.536 42.5732C236.292 42.5732 236.088 42.4907 235.923 42.3256Z" fill="#00838F"/>
<path d="M245.724 36.29H247.161V42.5022H245.724V36.29Z" fill="#00838F"/>
<path d="M256.715 36.29V42.5022H255.536L252.444 38.7304V42.5022H251.025V36.29H252.211L255.296 40.0618V36.29H256.715Z" fill="#00838F"/>
<path d="M266.273 36.29V42.5022H265.094L262.001 38.7304V42.5022H260.582V36.29H261.768L264.854 40.0618V36.29H266.273Z" fill="#00838F"/>
<path d="M271.398 42.1931C270.882 41.9132 270.477 41.5328 270.183 41.0447C269.889 40.5567 269.746 40.0076 269.746 39.3975C269.746 38.7874 269.893 38.2383 270.183 37.7503C270.477 37.2622 270.882 36.8782 271.398 36.6018C271.914 36.3255 272.494 36.1855 273.139 36.1855C273.784 36.1855 274.361 36.3255 274.878 36.6018C275.39 36.8818 275.795 37.2622 276.092 37.7503C276.39 38.2383 276.537 38.7874 276.537 39.3975C276.537 40.0076 276.39 40.5567 276.092 41.0447C275.795 41.5328 275.394 41.9168 274.878 42.1931C274.365 42.4695 273.784 42.6094 273.139 42.6094C272.494 42.6094 271.917 42.4695 271.398 42.1931ZM274.136 41.1309C274.43 40.9622 274.662 40.7253 274.831 40.4239C274.999 40.1224 275.085 39.7779 275.085 39.3939C275.085 39.0099 274.999 38.6654 274.831 38.3639C274.662 38.0625 274.43 37.8256 274.136 37.6569C273.838 37.4883 273.509 37.4021 273.143 37.4021C272.777 37.4021 272.444 37.4883 272.15 37.6569C271.853 37.8256 271.624 38.0589 271.455 38.3639C271.287 38.6654 271.201 39.0099 271.201 39.3939C271.201 39.7779 271.287 40.1224 271.455 40.4239C271.624 40.7253 271.856 40.9622 272.15 41.1309C272.444 41.2995 272.777 41.3857 273.143 41.3857C273.509 41.3857 273.838 41.2995 274.136 41.1309Z" fill="#00838F"/>
<path d="M285.976 36.29L283.288 42.5022H281.869L279.192 36.29H280.744L282.633 40.7293L284.546 36.29H285.976Z" fill="#00838F"/>
<path d="M293.1 41.1708H290.219L289.671 42.5022H288.198L290.965 36.29H292.384L295.157 42.5022H293.652L293.1 41.1708ZM292.649 40.0798L291.663 37.7004L290.678 40.0798H292.649Z" fill="#00838F"/>
<path d="M299.483 37.46H297.498V36.29H302.905V37.46H300.92V42.5022H299.483V37.46Z" fill="#00838F"/>
<path d="M310.875 41.3495V42.5051H306.07V36.293H310.757V37.445H307.496V38.7943H310.377V39.914H307.496V41.3531H310.875V41.3495Z" fill="#00838F"/>
<path d="M314.226 42.3256C314.061 42.1605 313.979 41.9523 313.979 41.7047C313.979 41.4499 314.061 41.2453 314.226 41.0874C314.391 40.9295 314.595 40.8506 314.839 40.8506C315.083 40.8506 315.287 40.9295 315.452 41.0874C315.617 41.2453 315.699 41.4499 315.699 41.7047C315.699 41.9523 315.617 42.1605 315.452 42.3256C315.287 42.4907 315.083 42.5732 314.839 42.5732C314.595 42.5732 314.391 42.4907 314.226 42.3256Z" fill="#00838F"/>
</svg>
