<svg width="54" height="54" viewBox="0 0 54 54" fill="none" xmlns="http://www.w3.org/2000/svg">
<path d="M8.3475 12.15H42.579C45.6795 12.15 47.9182 15.0075 47.0677 17.883L43.3462 30.483C42.7725 32.418 40.941 33.75 38.8575 33.75H18.252C16.1663 33.75 14.3325 32.4158 13.761 30.483L8.3475 12.15ZM8.3475 12.15L6.75 6.75M37.125 47.25C38.0201 47.25 38.8785 46.8944 39.5115 46.2615C40.1444 45.6285 40.5 44.7701 40.5 43.875C40.5 42.9799 40.1444 42.1215 39.5115 41.4885C38.8785 40.8556 38.0201 40.5 37.125 40.5C36.2299 40.5 35.3714 40.8556 34.7385 41.4885C34.1056 42.1215 33.75 42.9799 33.75 43.875C33.75 44.7701 34.1056 45.6285 34.7385 46.2615C35.3714 46.8944 36.2299 47.25 37.125 47.25ZM19.125 47.25C20.0201 47.25 20.8785 46.8944 21.5115 46.2615C22.1444 45.6285 22.5 44.7701 22.5 43.875C22.5 42.9799 22.1444 42.1215 21.5115 41.4885C20.8785 40.8556 20.0201 40.5 19.125 40.5C18.2299 40.5 17.3714 40.8556 16.7385 41.4885C16.1056 42.1215 15.75 42.9799 15.75 43.875C15.75 44.7701 16.1056 45.6285 16.7385 46.2615C17.3714 46.8944 18.2299 47.25 19.125 47.25Z" stroke="#05B4C4" stroke-width="2.8" stroke-linecap="round" stroke-linejoin="round"/>
</svg>
