<svg width="62" height="62" viewBox="0 0 62 62" fill="none" xmlns="http://www.w3.org/2000/svg">
<path d="M19.3904 39.4346C19.4583 39.6799 19.5738 39.9094 19.7303 40.11C19.8869 40.3107 20.0814 40.4785 20.3028 40.604C20.5242 40.7294 20.7682 40.81 21.0208 40.8412C21.2733 40.8724 21.5296 40.8535 21.7749 40.7857C22.0201 40.7178 22.2496 40.6023 22.4503 40.4458C22.6509 40.2892 22.8188 40.0947 22.9442 39.8733C23.0697 39.6519 23.1503 39.4079 23.1815 39.1553C23.2127 38.9028 23.1938 38.6465 23.1259 38.4012L19.3904 39.4346ZM8.26661 12.2063C8.02037 12.1343 7.76229 12.112 7.50736 12.1406C7.25243 12.1692 7.00572 12.2482 6.78154 12.3729C6.55736 12.4976 6.36018 12.6656 6.20143 12.8671C6.04268 13.0686 5.92553 13.2996 5.85678 13.5467C5.78802 13.7939 5.76903 14.0522 5.8009 14.3068C5.83278 14.5613 5.91488 14.807 6.04245 15.0296C6.17002 15.2521 6.34052 15.4471 6.54405 15.6033C6.74759 15.7594 6.9801 15.8736 7.22811 15.9392L8.26661 12.2063ZM52.1523 40.6229C52.4046 40.5646 52.6426 40.4563 52.8523 40.3044C53.062 40.1525 53.2391 39.9601 53.3732 39.7386C53.5073 39.5171 53.5957 39.2709 53.633 39.0147C53.6704 38.7585 53.656 38.4974 53.5907 38.2468C53.5254 37.9962 53.4106 37.7613 53.253 37.5558C53.0954 37.3504 52.8981 37.1786 52.673 37.0507C52.4479 36.9228 52.1994 36.8413 51.9422 36.811C51.6851 36.7807 51.4244 36.8023 51.1758 36.8745L52.1523 40.6229ZM26.3422 45.3607C27.143 48.2541 25.3864 51.3102 22.276 52.1187L23.2499 55.8672C28.3572 54.5419 31.4779 49.4037 30.0777 44.3274L26.3422 45.3607ZM22.276 52.1187C19.145 52.9325 16.0037 51.1138 15.1977 48.1947L11.4622 49.228C12.8572 54.2784 18.1634 57.1898 23.2499 55.8672L22.276 52.1187ZM15.1977 48.1947C14.3969 45.3013 16.1535 42.2453 19.2639 41.4367L18.2899 37.6908C13.1827 39.0161 10.0594 44.1517 11.4622 49.228L15.1977 48.1947ZM19.2639 41.4367C22.3949 40.6229 25.5362 42.4416 26.3422 45.3607L30.0777 44.3274C28.6827 39.277 23.3765 36.3656 18.2899 37.6882L19.2639 41.4367ZM23.1259 38.4012L17.5666 18.2771L13.8311 19.3104L19.3904 39.4346L23.1259 38.4012ZM12.6686 13.4256L8.26661 12.2063L7.22811 15.9392L11.6327 17.1611L12.6686 13.4256ZM17.5666 18.2771C17.2382 17.1145 16.6145 16.0568 15.7562 15.2066C14.8979 14.3565 13.8342 13.7429 12.6686 13.4256L11.6379 17.1611C12.7358 17.4659 13.5521 18.3003 13.8311 19.3104L17.5666 18.2771ZM28.7008 46.7196L52.1523 40.6229L51.1784 36.8745L27.7243 42.9712L28.7008 46.7196Z" fill="#05B4C4"/>
<path d="M49.5095 16.1097C48.2566 11.5734 47.6289 9.3052 45.7895 8.27445C43.945 7.24112 41.6071 7.85079 36.9313 9.06754L31.9713 10.354C27.2954 11.5682 24.9575 12.1779 23.8958 13.9655C22.8314 15.7506 23.4566 18.0188 24.7095 22.5525L26.0399 27.3653C27.2929 31.899 27.918 34.1672 29.7599 35.198C31.6019 36.2313 33.9398 35.6216 38.6156 34.4075L43.5756 33.1158C48.2514 31.9016 50.5894 31.2945 51.6537 29.5095C52.2375 28.5278 52.3124 27.4015 52.0515 25.8334" stroke="#05B4C4" stroke-width="2.5" stroke-linecap="round"/>
</svg>
