<svg width="54" height="54" viewBox="0 0 54 54" fill="none" xmlns="http://www.w3.org/2000/svg">
<path d="M36 47.25C32.8845 47.25 30.231 46.1542 28.0395 43.9627C25.848 41.7712 24.7515 39.117 24.75 36C24.7485 32.883 25.845 30.2295 28.0395 28.0395C30.234 25.8495 32.8875 24.753 36 24.75C39.1125 24.747 41.7668 25.8435 43.9628 28.0395C46.1588 30.2355 47.2545 32.889 47.25 36C47.2455 39.111 46.1498 41.7652 43.9628 43.9627C41.7758 46.1602 39.1215 47.256 36 47.25ZM36 45C38.475 45 40.5938 44.1187 42.3563 42.3562C44.1188 40.5937 45 38.475 45 36C45 33.525 44.1188 31.4062 42.3563 29.6437C40.5938 27.8812 38.475 27 36 27C33.525 27 31.4063 27.8812 29.6438 29.6437C27.8813 31.4062 27 33.525 27 36C27 38.475 27.8813 40.5937 29.6438 42.3562C31.4063 44.1187 33.525 45 36 45ZM10.3838 42.75C9.34875 42.75 8.484 42.4035 7.7895 41.7105C7.095 41.0175 6.7485 40.152 6.75 39.114V23.661C6.75 23.361 6.807 23.0175 6.921 22.6305C7.035 22.2435 7.14825 21.9 7.26075 21.6L12.2783 10.3837H10.4715C9.978 10.3837 9.5955 10.248 9.324 9.9765C9.05251 9.705 8.91525 9.32175 8.91225 8.82675V8.30925C8.91225 7.81425 9.04876 7.431 9.32176 7.1595C9.59476 6.888 9.97725 6.7515 10.4693 6.75H23.2785C23.772 6.75 24.1545 6.8865 24.426 7.1595C24.6975 7.4325 24.8348 7.815 24.8378 8.307V8.82675C24.8378 9.32025 24.7013 9.70275 24.4283 9.97425C24.1553 10.2457 23.7728 10.3822 23.2808 10.3837H21.4695L27.0878 23.0895C26.7788 23.262 26.4713 23.4675 26.1653 23.706C25.8593 23.9445 25.5548 24.2115 25.2518 24.507L19.0553 10.386H14.6948L9 23.2695V39.114C9 39.519 9.12975 39.8512 9.38925 40.1107C9.64875 40.3702 9.98101 40.5 10.386 40.5H20.9003C21.0008 40.9125 21.1305 41.3085 21.2895 41.688C21.45 42.0675 21.6255 42.4215 21.816 42.75H10.3838ZM36 21.636C35.031 21.375 34.2263 20.8522 33.5858 20.0677C32.9453 19.2832 32.625 18.363 32.625 17.307C32.625 16.2525 32.9453 15.3322 33.5858 14.5462C34.2263 13.7617 35.031 13.2397 36 12.9802V21.636ZM36 21.636C36.2595 20.6655 36.7815 19.86 37.566 19.2195C38.3505 18.579 39.2708 18.2587 40.3268 18.2587C41.3828 18.2587 42.303 18.579 43.0875 19.2195C43.872 19.86 44.394 20.6655 44.6535 21.636H36Z" fill="#05B4C4"/>
</svg>
