<svg width="47" height="47" viewBox="0 0 47 47" fill="none" xmlns="http://www.w3.org/2000/svg">
<path d="M43.0834 30.2015V36.2292C43.0834 37.1418 43.0834 37.5981 42.9346 37.9584C42.7354 38.4373 42.3544 38.8176 41.8751 39.0159C41.5148 39.1667 41.0585 39.1667 40.1459 39.1667C39.2333 39.1667 38.777 39.1667 38.4167 39.0179C37.9378 38.8187 37.5575 38.4377 37.3592 37.9584C37.2084 37.5981 37.2084 37.1418 37.2084 36.2292C37.2084 35.3166 37.2084 34.8603 37.0596 34.5C36.8604 34.0211 36.4794 33.6408 36.0001 33.4425C35.6398 33.2917 35.1835 33.2917 34.2709 33.2917H12.7292C11.8167 33.2917 11.3604 33.2917 11 33.4405C10.5212 33.6397 10.1408 34.0207 9.94254 34.5C9.79175 34.8603 9.79175 35.3166 9.79175 36.2292C9.79175 37.1418 9.79175 37.5981 9.64291 37.9584C9.44373 38.4373 9.06271 38.8176 8.58346 39.0159C8.22312 39.1667 7.76683 39.1667 6.85425 39.1667C5.94166 39.1667 5.48537 39.1667 5.12504 39.0179C4.64615 38.8187 4.26583 38.4377 4.06754 37.9584C3.91675 37.5981 3.91675 37.1418 3.91675 36.2292V30.2015C3.91675 27.8475 3.91675 26.6706 4.25358 25.5602C4.59041 24.4498 5.24254 23.4707 6.54875 21.5123L7.83341 19.5834L9.71733 15.0635C11.1763 11.5581 11.9067 9.80737 13.3872 8.82037C14.8677 7.83337 16.7634 7.83337 20.5626 7.83337H26.4376C30.2348 7.83337 32.1324 7.83337 33.6129 8.82037C35.0934 9.80737 35.8239 11.5601 37.2828 15.0635L39.1667 19.5834L40.4514 21.5123C41.7576 23.4707 42.4097 24.4498 42.7466 25.5602C43.0834 26.6706 43.0834 27.8475 43.0834 30.2015Z" stroke="#05B4C4" stroke-width="2.5" stroke-linecap="round" stroke-linejoin="round"/>
<path d="M3.91675 16.6459L7.83341 19.5834L11.282 20.445C11.5954 20.5234 11.912 20.5625 12.2318 20.5625H34.7683C35.0882 20.5625 35.4048 20.5234 35.7181 20.445L39.1667 19.5834L43.0834 16.6459" stroke="#05B4C4" stroke-width="2.5" stroke-linecap="round" stroke-linejoin="round"/>
<path d="M35.25 27.4167V27.4363M11.75 27.4167V27.4363" stroke="#05B4C4" stroke-width="2.5" stroke-linecap="round" stroke-linejoin="round"/>
</svg>
