<svg width="50" height="50" viewBox="0 0 50 50" fill="none" xmlns="http://www.w3.org/2000/svg">
<path d="M42.0687 27.0812C42.9024 28.5033 43.4466 30.0763 43.67 31.7096C43.8933 33.3429 43.7913 35.0043 43.37 36.598C42.9486 38.1917 42.2162 39.6864 41.2148 40.9959C40.2134 42.3054 38.963 43.404 37.5353 44.2282C36.1077 45.0525 34.5311 45.5862 32.8964 45.7987C31.2616 46.0112 29.601 45.8982 28.0101 45.4663C26.4192 45.0344 24.9294 44.292 23.6266 43.282C22.3237 42.272 21.2335 41.0142 20.4187 39.5812M42.0687 27.0812C40.3993 24.2336 37.6714 22.1619 34.4802 21.3182C31.289 20.4745 27.8936 20.9273 25.035 22.5777C22.1765 24.2282 20.0867 26.9423 19.2219 30.1279C18.357 33.3134 18.7873 36.7117 20.4187 39.5812M42.0687 27.0812L20.4187 39.5812" stroke="#05B4C4" stroke-width="2.5"/>
<path d="M20.9229 11.5458L31.5167 5.28539C35.4167 2.98123 40.4042 4.34789 42.6563 8.34164C43.5169 9.86974 43.8838 11.6266 43.7066 13.3714C43.5294 15.1163 42.8169 16.7636 41.6667 18.0875M20.9229 11.5458L10.3292 17.8062C6.42918 20.1104 5.09168 25.2146 7.34376 29.2062C7.97308 30.3384 8.86396 31.3037 9.9421 32.0216C11.0202 32.7395 12.2544 33.1892 13.5417 33.3333M20.9229 11.5458L23.9583 16.6666" stroke="#05B4C4" stroke-width="2.5" stroke-linecap="round" stroke-linejoin="round"/>
</svg>
