<svg width="49" height="49" viewBox="0 0 49 49" fill="none" xmlns="http://www.w3.org/2000/svg">
<path d="M45.8563 21.3395H42.7938C41.6653 21.3395 40.6884 21.9596 40.157 22.8707H9.21045L13.23 12.152H24.4188V9.08948H13.23C12.6071 9.09143 11.9995 9.28232 11.4874 9.63692C10.9753 9.99152 10.5829 10.4931 10.3619 11.0755L6.51239 21.3395H2.98132V24.402H6.04382V38.1832C6.04382 39.8707 7.41735 41.2457 9.10632 41.2457V45.8395H12.1688V41.2457H36.6688V45.8395H39.7313V41.2457C41.4188 41.2457 42.7938 39.8707 42.7938 38.1832V24.402H45.8563V21.3395ZM9.10632 38.1832V33.5895H13.7001V30.527H9.10632V25.9332H39.7313V30.527H35.1376V33.5895H39.7313V38.1832H9.10632Z" fill="#05B4C4"/>
<path d="M18.3429 30.5346H30.5929V33.5971H18.3429V30.5346ZM45.2286 3.86792L35.1376 13.9589L31.1717 9.99292L29.0126 12.152L35.1376 18.277L47.3876 6.02698L45.2286 3.86792Z" fill="#05B4C4"/>
</svg>
