<svg width="29" height="29" viewBox="0 0 29 29" fill="none" xmlns="http://www.w3.org/2000/svg">
<g clip-path="url(#clip0_883_5361)">
<path d="M25.2927 1.69572C25.0084 1.44283 24.6021 1.38036 24.2549 1.53606C23.9076 1.69176 23.6841 2.03674 23.6838 2.41729V3.86722H20.3006C19.7668 3.86722 19.334 4.29999 19.334 4.83385V6.76707C19.334 7.30094 19.7668 7.73371 20.3006 7.73371H23.6838V9.18364C23.6838 9.71751 24.1165 10.1503 24.6504 10.1503C24.8971 10.1476 25.1339 10.0534 25.3149 9.88589L28.6899 6.51192C28.8882 6.32853 29.0007 6.07054 29.0001 5.80049C29.002 5.53378 28.8917 5.27863 28.6962 5.09728L25.2927 1.69572ZM28.0336 5.80044C28.0263 5.80667 28.0193 5.81329 28.0128 5.82026L24.6504 9.18359V7.25036C24.6504 6.98343 24.434 6.76707 24.1671 6.76707H20.3006V4.83385H24.1671C24.4341 4.83385 24.6504 4.61744 24.6504 4.35056L24.6296 2.39848L28.0336 5.80044Z" fill="#05B4C4"/>
<path d="M25.1334 21.2663H23.1113C23.1686 21.1115 23.1986 20.948 23.2002 20.783V12.0834C23.2002 11.2826 22.551 10.6335 21.7503 10.6335H17.7949C17.8521 10.4787 17.8822 10.3152 17.8838 10.1502V1.4506C17.8838 0.649855 17.2346 0.000671387 16.4339 0.000671387H7.7343C6.93355 0.000671387 6.28437 0.649855 6.28437 1.4506V10.1502C6.28595 10.3152 6.31603 10.4787 6.37329 10.6335H2.41793C1.61718 10.6335 0.967997 11.2826 0.967997 12.0834V20.783C0.969016 21.2698 1.21426 21.7237 1.62097 21.9912C0.252264 22.9668 -0.328444 24.7154 0.184695 26.3159C0.697834 27.9165 2.18707 29.0014 3.86786 28.9993H25.1335C27.2689 28.9993 29 27.2682 29 25.1328C29 22.9973 27.2689 21.2663 25.1334 21.2663ZM22.2336 12.0834V20.783C22.2336 21.0499 22.0172 21.2663 21.7503 21.2663H13.0507C12.7838 21.2663 12.5674 21.0499 12.5674 20.783V12.0834C12.5674 11.8165 12.7838 11.6001 13.0507 11.6001H14.9839V15.9499C14.9824 16.3157 15.1884 16.6508 15.5156 16.8145C15.8564 16.9823 16.2637 16.9369 16.559 16.698L17.4005 15.9523L18.2705 16.7232C18.5634 16.9429 18.9553 16.9782 19.2827 16.8145C19.6102 16.6507 19.817 16.3161 19.817 15.9499V11.6001H21.7502C22.0172 11.6 22.2336 11.8165 22.2336 12.0834ZM16.4339 11.6H18.8533L18.8814 15.974L17.9805 15.1766C17.6236 14.9146 17.1353 14.9247 16.7896 15.2012L15.9506 15.9498V11.6H16.4339ZM13.565 5.34123L12.6641 4.54376C12.3072 4.28181 11.819 4.29195 11.4732 4.5684L10.6342 5.31704V0.967253H13.537L13.565 5.34123ZM7.251 10.1501V1.45054C7.251 1.18361 7.46742 0.967253 7.7343 0.967253H9.66751V5.31704C9.66644 5.68343 9.87345 6.01861 10.2016 6.18167C10.5423 6.34949 10.9496 6.30401 11.245 6.06517L12.084 5.31942L12.954 6.09032C13.2469 6.31002 13.6388 6.34536 13.9662 6.18162C14.2937 6.01788 14.5005 5.68315 14.5005 5.31704V0.967253H16.4338C16.7007 0.967253 16.917 1.18367 16.917 1.45054V10.1501C16.917 10.4171 16.7007 10.6334 16.4338 10.6334H7.73418C7.46742 10.6335 7.251 10.4171 7.251 10.1501ZM8.24857 15.974L7.34769 15.1766C6.99081 14.9146 6.50253 14.9247 6.15682 15.2012L5.31778 15.9498V11.6H8.22053L8.24857 15.974ZM2.41793 21.2663C2.15099 21.2663 1.93464 21.0499 1.93464 20.783V12.0834C1.93464 11.8165 2.15105 11.6001 2.41793 11.6001H4.35115V15.9499C4.35007 16.3163 4.55708 16.6515 4.88518 16.8145C5.22597 16.9823 5.63326 16.9369 5.92862 16.698L6.76766 15.9523L7.63761 16.7232C7.93049 16.9429 8.32242 16.9782 8.64985 16.8145C8.97733 16.6507 9.18417 16.3161 9.18417 15.9499V11.6001H11.1174C11.3843 11.6001 11.6007 11.8165 11.6007 12.0834V20.783C11.6007 21.0499 11.3843 21.2663 11.1174 21.2663H2.41793ZM25.1334 28.0326H3.86786C2.26631 28.0326 0.967997 26.7343 0.967997 25.1328C0.967997 23.5312 2.26631 22.2329 3.86786 22.2329H25.1335C26.7351 22.2329 28.0334 23.5312 28.0334 25.1328C28.0334 26.7343 26.735 28.0326 25.1334 28.0326Z" fill="#05B4C4"/>
<path d="M25.1344 23.1996C24.0667 23.1996 23.2012 24.0651 23.2012 25.1328C23.2012 26.2005 24.0667 27.066 25.1344 27.066C26.2021 27.066 27.0676 26.2005 27.0676 25.1328C27.0676 24.0651 26.2021 23.1996 25.1344 23.1996ZM25.1344 26.0994C24.6005 26.0994 24.1678 25.6667 24.1678 25.1328C24.1678 24.5989 24.6005 24.1662 25.1344 24.1662C25.6683 24.1662 26.101 24.5989 26.101 25.1328C26.101 25.6667 25.6683 26.0994 25.1344 26.0994Z" fill="#05B4C4"/>
<path d="M19.818 23.1996C18.7503 23.1996 17.8848 24.0651 17.8848 25.1328C17.8848 26.2005 18.7503 27.066 19.818 27.066C20.8857 27.066 21.7512 26.2005 21.7512 25.1328C21.7512 24.0651 20.8857 23.1996 19.818 23.1996ZM19.818 26.0994C19.2841 26.0994 18.8513 25.6667 18.8513 25.1328C18.8513 24.5989 19.2841 24.1662 19.818 24.1662C20.3519 24.1662 20.7846 24.5989 20.7846 25.1328C20.7846 25.6667 20.3518 26.0994 19.818 26.0994Z" fill="#05B4C4"/>
<path d="M14.5016 23.1996C13.4339 23.1996 12.5684 24.0651 12.5684 25.1328C12.5684 26.2005 13.4339 27.066 14.5016 27.066C15.5693 27.066 16.4348 26.2005 16.4348 25.1328C16.4348 24.0651 15.5693 23.1996 14.5016 23.1996ZM14.5016 26.0994C13.9677 26.0994 13.5349 25.6667 13.5349 25.1328C13.5349 24.5989 13.9677 24.1662 14.5016 24.1662C15.0354 24.1662 15.4682 24.5989 15.4682 25.1328C15.4682 25.6667 15.0354 26.0994 14.5016 26.0994Z" fill="#05B4C4"/>
<path d="M9.18517 23.1996C8.11749 23.1996 7.25195 24.0651 7.25195 25.1328C7.25195 26.2005 8.11749 27.066 9.18517 27.066C10.2529 27.066 11.1184 26.2005 11.1184 25.1328C11.1184 24.0651 10.2529 23.1996 9.18517 23.1996ZM9.18517 26.0994C8.6513 26.0994 8.21853 25.6667 8.21853 25.1328C8.21853 24.5989 8.6513 24.1662 9.18517 24.1662C9.71904 24.1662 10.1518 24.5989 10.1518 25.1328C10.1518 25.6667 9.71904 26.0994 9.18517 26.0994Z" fill="#05B4C4"/>
<path d="M3.86877 23.1996C2.80109 23.1996 1.93555 24.0651 1.93555 25.1328C1.93555 26.2005 2.80109 27.066 3.86877 27.066C4.93645 27.066 5.80199 26.2005 5.80199 25.1328C5.80199 24.0651 4.93645 23.1996 3.86877 23.1996ZM3.86877 26.0994C3.3349 26.0994 2.90213 25.6667 2.90213 25.1328C2.90213 24.5989 3.3349 24.1662 3.86877 24.1662C4.40264 24.1662 4.83541 24.5989 4.83541 25.1328C4.83541 25.6667 4.40258 26.0994 3.86877 26.0994Z" fill="#05B4C4"/>
</g>
<defs>
<clipPath id="clip0_883_5361">
<rect width="29" height="29" fill="white"/>
</clipPath>
</defs>
</svg>
