<svg width="28" height="42" viewBox="0 0 28 42" fill="none" xmlns="http://www.w3.org/2000/svg">
<path d="M17.2405 2.62504L14.2789 18.1854L25.0079 18.2215L10.4037 39.316L13.3654 22.197L2.63701 22.1596L17.2405 2.62504ZM17.2425 8.20326e-05C17.1716 8.20326e-05 17.1008 0.00266602 17.0312 0.007875C16.5679 0.0453223 16.2608 0.200197 15.8966 0.444979C15.6915 0.581698 15.5066 0.746489 15.3473 0.934541C15.2995 0.990993 15.2543 1.04968 15.2121 1.11042L0.503544 20.5768C-0.0772371 21.3728 -0.16255 22.4235 0.2837 23.3016C0.729294 24.1796 1.63032 24.7361 2.61798 24.7433L10.195 24.7985L7.81286 38.8337C7.58645 40.0399 8.22958 41.2421 9.36161 41.7264C9.69059 41.8678 10.045 41.9406 10.403 41.9404C11.2279 41.9404 11.9058 41.5545 12.4145 40.8576L27.1414 19.763C27.7222 18.9669 27.8069 17.915 27.3612 17.0382C26.9156 16.1602 26.0146 15.6036 25.0269 15.5964L17.4499 15.5833L19.8065 3.24253C19.8564 3.04049 19.8815 2.83312 19.8813 2.625C19.8813 1.20487 18.7506 0.04725 17.3357 0.0013125C17.3042 1.52795e-10 17.2734 0 17.2426 0L17.2425 8.20326e-05Z" fill="#05B4C4"/>
</svg>
