<svg width="19" height="19" viewBox="0 0 19 19" fill="none" xmlns="http://www.w3.org/2000/svg">
<path d="M17.58 14.907C17.69 14.541 17.75 14.152 17.75 13.75V4.75C17.75 3.68913 17.3286 2.67172 16.5784 1.92157C15.8283 1.17143 14.8109 0.75 13.75 0.75H4.75C3.68913 0.75 2.67172 1.17143 1.92157 1.92157C1.17143 2.67172 0.75 3.68913 0.75 4.75V13.82C0.768355 14.8687 1.19787 15.8682 1.94604 16.6033C2.6942 17.3384 3.70115 17.7502 4.75 17.75H13.75L13.867 17.748M17.58 14.907L17.492 14.803L15.026 11.827C14.8389 11.6013 14.6044 11.4194 14.3392 11.2943C14.074 11.1693 13.7846 11.1041 13.4914 11.1033C13.1982 11.1025 12.9084 11.1662 12.6425 11.2899C12.3767 11.4136 12.1413 11.5942 11.953 11.819L10.641 13.385L10.427 13.646M17.58 14.907C17.3374 15.7103 16.8484 16.416 16.182 16.926C15.5157 17.4361 14.7058 17.7236 13.867 17.748M10.427 13.646L13.774 17.642L13.867 17.748M10.427 13.646L7.2 9.793C7.01228 9.56896 6.77774 9.38879 6.51288 9.26517C6.24802 9.14155 5.95929 9.07749 5.667 9.07749C5.37471 9.07749 5.08598 9.14155 4.82112 9.26517C4.55626 9.38879 4.32172 9.56896 4.134 9.793L0.928 13.62L0.751 13.821" stroke="#05B4C4" stroke-width="1.5" stroke-linecap="round" stroke-linejoin="round"/>
<path d="M12.3418 7.659C13.1702 7.659 13.8418 6.98742 13.8418 6.159C13.8418 5.33057 13.1702 4.659 12.3418 4.659C11.5134 4.659 10.8418 5.33057 10.8418 6.159C10.8418 6.98742 11.5134 7.659 12.3418 7.659Z" fill="#05B4C4"/>
</svg>
