<svg width="25" height="25" viewBox="0 0 25 25" fill="none" xmlns="http://www.w3.org/2000/svg">
<path fill-rule="evenodd" clip-rule="evenodd" d="M6.08334 10.2665C7.94904 14.3271 11.2633 17.5451 15.3771 19.2904L15.3896 19.2957L16.1854 19.6498C16.677 19.869 17.229 19.9124 17.7488 19.7726C18.2685 19.6328 18.7243 19.3183 19.0396 18.8821L20.3667 17.0457C20.4057 16.9916 20.4225 16.9246 20.4135 16.8585C20.4046 16.7924 20.3707 16.7323 20.3188 16.6904L18.0021 14.8207C17.9748 14.7986 17.9432 14.7823 17.9094 14.7728C17.8756 14.7632 17.8402 14.7606 17.8054 14.7651C17.7706 14.7695 17.737 14.781 17.7067 14.7988C17.6764 14.8166 17.6501 14.8403 17.6292 14.8686L16.7271 16.0852C16.6208 16.2288 16.4686 16.3316 16.2957 16.3765C16.1228 16.4214 15.9398 16.4057 15.7771 16.3321C12.6956 14.9348 10.2265 12.4657 8.82917 9.38419C8.75554 9.22148 8.73987 9.03844 8.78479 8.86558C8.82971 8.69272 8.93251 8.54047 9.07605 8.43419L10.2917 7.53107C10.3199 7.51019 10.3437 7.48382 10.3614 7.45353C10.3792 7.42324 10.3907 7.38967 10.3952 7.35483C10.3997 7.31999 10.397 7.28461 10.3875 7.25081C10.3779 7.21701 10.3616 7.18549 10.3396 7.15815L8.47084 4.84149C8.42903 4.78954 8.36888 4.75561 8.30279 4.7467C8.23671 4.73778 8.16972 4.75456 8.11563 4.79357L6.26876 6.1269C5.82959 6.44368 5.51366 6.90275 5.37466 7.4261C5.23565 7.94945 5.28215 8.50479 5.50626 8.99774L6.08334 10.2665ZM14.7604 20.7259C10.291 18.8276 6.69055 15.3301 4.66355 10.9175L4.66147 10.9154L4.08438 9.64461C3.71086 8.82319 3.63325 7.89778 3.86472 7.02562C4.0962 6.15346 4.62249 5.38833 5.35417 4.86024L7.20105 3.5269C7.57931 3.2539 8.04783 3.1363 8.51018 3.19831C8.97253 3.26032 9.39351 3.49722 9.68647 3.86024L11.5563 6.17794C11.7106 6.36917 11.8246 6.58961 11.8916 6.82603C11.9585 7.06244 11.977 7.30996 11.9458 7.55369C11.9147 7.79742 11.8346 8.03234 11.7104 8.24434C11.5861 8.45634 11.4203 8.64103 11.2229 8.78732L10.525 9.30399C11.7054 11.5915 13.5687 13.4548 15.8563 14.6352L16.374 13.9373C16.5203 13.7401 16.7049 13.5744 16.9168 13.4502C17.1287 13.3261 17.3635 13.2461 17.6071 13.2149C17.8507 13.1838 18.0981 13.2022 18.3344 13.2691C18.5707 13.3359 18.7911 13.4498 18.9823 13.604L21.3 15.4738C21.6633 15.7668 21.9004 16.188 21.9624 16.6505C22.0244 17.1131 21.9067 17.5819 21.6333 17.9602L20.3063 19.7977C19.7809 20.5247 19.0214 21.0488 18.1553 21.282C17.2892 21.5151 16.3693 21.443 15.55 21.0779L14.7604 20.7259Z" fill="#D4943C"/>
</svg>
