<svg width="47" height="70" viewBox="0 0 47 70" fill="none" xmlns="http://www.w3.org/2000/svg">
<path d="M23.5 0C10.561 0 0.0625 10.0797 0.0625 22.5C0.0625 42.5 23.5 70 23.5 70C23.5 70 46.9375 42.5 46.9375 22.5C46.9375 10.0797 36.439 0 23.5 0ZM23.5 35C21.6458 35 19.8332 34.4135 18.2915 33.3147C16.7498 32.2159 15.5482 30.6541 14.8386 28.8268C14.1291 26.9996 13.9434 24.9889 14.3051 23.0491C14.6669 21.1093 15.5598 19.3275 16.8709 17.9289C18.182 16.5304 19.8525 15.578 21.671 15.1921C23.4896 14.8063 25.3746 15.0043 27.0877 15.7612C28.8007 16.5181 30.2649 17.7998 31.295 19.4443C32.3252 21.0888 32.875 23.0222 32.875 25C32.8723 27.6513 31.8837 30.1931 30.1261 32.0679C28.3686 33.9426 25.9856 34.9971 23.5 35Z" fill="#5393C5"/>
</svg>
