<svg width="25" height="25" viewBox="0 0 25 25" fill="none" xmlns="http://www.w3.org/2000/svg">
<path d="M8.33301 10.4167V7.29167C8.33301 6.1866 8.77199 5.12679 9.5534 4.34539C10.3348 3.56399 11.3946 3.125 12.4997 3.125C13.6047 3.125 14.6646 3.56399 15.446 4.34539C16.2274 5.12679 16.6663 6.1866 16.6663 7.29167V10.4167" stroke="black" stroke-linecap="round"/>
<path d="M5.20801 10.4167H19.7913V19.7917C19.7913 20.3442 19.5718 20.8741 19.1811 21.2648C18.7904 21.6555 18.2605 21.875 17.708 21.875H7.29134C6.73881 21.875 6.2089 21.6555 5.8182 21.2648C5.4275 20.8741 5.20801 20.3442 5.20801 19.7917V10.4167Z" stroke="black" stroke-linejoin="round"/>
<path d="M15.1035 16.1458H15.1139V16.1563H15.1035V16.1458Z" stroke="black" stroke-width="1.5" stroke-linejoin="round"/>
</svg>
