<svg width="20" height="19" viewBox="0 0 20 19" fill="none" xmlns="http://www.w3.org/2000/svg">
<path fill-rule="evenodd" clip-rule="evenodd" d="M2.73303 1.04305C3.95003 -0.166948 5.95403 0.0480527 6.97303 1.41005L8.23503 3.09405C9.06503 4.20205 8.99103 5.75005 8.00603 6.72905L7.76803 6.96705C7.74104 7.06696 7.7383 7.17187 7.76003 7.27305C7.82303 7.68105 8.16403 8.54505 9.59203 9.96505C11.02 11.3851 11.89 11.7251 12.304 11.7891C12.4083 11.81 12.5161 11.807 12.619 11.7801L13.027 11.3741C13.903 10.5041 15.247 10.3411 16.331 10.9301L18.241 11.9701C19.878 12.8581 20.291 15.0821 18.951 16.4151L17.53 17.8271C17.082 18.2721 16.48 18.6431 15.746 18.7121C13.936 18.8811 9.71903 18.6651 5.28603 14.2581C1.14903 10.1441 0.355027 6.55605 0.254027 4.78805C0.204027 3.89405 0.626027 3.13805 1.16403 2.60405L2.73303 1.04305ZM5.77303 2.30905C5.26603 1.63205 4.32203 1.57805 3.79003 2.10705L2.22003 3.66705C1.89003 3.99505 1.73203 4.35705 1.75203 4.70305C1.83203 6.10805 2.47203 9.34505 6.34403 13.1951C10.406 17.2331 14.157 17.3541 15.607 17.2181C15.903 17.1911 16.197 17.0371 16.472 16.7641L17.892 15.3511C18.47 14.7771 18.343 13.7311 17.525 13.2871L15.615 12.2481C15.087 11.9621 14.469 12.0561 14.085 12.4381L13.63 12.8911L13.1 12.3591C13.63 12.8911 13.629 12.8921 13.628 12.8921L13.627 12.8941L13.624 12.8971L13.617 12.9031L13.602 12.9171C13.5598 12.9562 13.5143 12.9917 13.466 13.0231C13.386 13.0761 13.28 13.1351 13.147 13.1841C12.877 13.2851 12.519 13.3391 12.077 13.2711C11.21 13.1381 10.061 12.5471 8.53403 11.0291C7.00803 9.51105 6.41203 8.36905 6.27803 7.50305C6.20903 7.06105 6.26403 6.70305 6.36603 6.43305C6.42216 6.28112 6.50254 6.13928 6.60403 6.01305L6.63603 5.97805L6.65003 5.96305L6.65603 5.95705L6.65903 5.95405L6.66103 5.95205L6.94903 5.66605C7.37703 5.23905 7.43703 4.53205 7.03403 3.99305L5.77303 2.30905Z" fill="black"/>
</svg>
