<svg width="25" height="25" viewBox="0 0 25 25" fill="none" xmlns="http://www.w3.org/2000/svg">
<rect width="25" height="25" stroke="black"/>
<path d="M5.80313 8.21564C5.50469 6.25001 6.89063 4.48439 9.00781 3.83751C9.38353 3.72342 9.78858 3.75648 10.1408 3.92999C10.4931 4.1035 10.7662 4.40447 10.9047 4.77189L11.5844 6.58439C11.6938 6.87597 11.7136 7.1936 11.6412 7.4965C11.5688 7.79941 11.4076 8.07378 11.1781 8.28439L9.15625 10.1359C9.05646 10.2273 8.98211 10.343 8.94048 10.4718C8.89885 10.6005 8.89136 10.7378 8.91875 10.8703L8.9375 10.9516L8.98594 11.1547C9.23801 12.1414 9.62111 13.09 10.125 13.975C10.6752 14.9147 11.3571 15.7708 12.15 16.5172L12.2125 16.5734C12.3134 16.663 12.4359 16.725 12.5679 16.7532C12.6998 16.7814 12.8369 16.7749 12.9656 16.7344L15.5797 15.9109C15.8768 15.8177 16.1949 15.8153 16.4934 15.9041C16.7918 15.9929 17.0569 16.1689 17.2547 16.4094L18.4922 17.9109C19.0078 18.5359 18.9453 19.4547 18.3531 20.0063C16.7328 21.5172 14.5047 21.8266 12.9547 20.5813C11.0539 19.0495 9.45212 17.1802 8.22969 15.0672C6.9953 12.957 6.17299 10.6322 5.80313 8.21564ZM10.5563 10.9734L12.2313 9.43595C12.6904 9.01491 13.0132 8.46626 13.1582 7.86044C13.3033 7.25462 13.264 6.61926 13.0453 6.03595L12.3672 4.22345C12.089 3.48403 11.5398 2.87823 10.8311 2.52911C10.1224 2.17998 9.30735 2.11371 8.55156 2.34376C5.92188 3.14845 3.81094 5.50626 4.25781 8.45157C4.57031 10.5078 5.29063 13.1234 6.87969 15.8547C8.19862 18.133 9.92648 20.1485 11.9766 21.8C14.3016 23.6672 17.4047 23.0297 19.4203 21.1516C19.9971 20.6146 20.3471 19.8777 20.3991 19.0914C20.4511 18.3051 20.201 17.5286 19.7 16.9203L18.4625 15.4172C18.0666 14.9367 17.5362 14.5854 16.9394 14.4083C16.3425 14.2313 15.7064 14.2365 15.1125 14.4234L12.9422 15.1063C12.3818 14.5285 11.8909 13.8872 11.4797 13.1953C11.0828 12.4957 10.7732 11.75 10.5578 10.975" fill="black"/>
</svg>
