<svg width="35" height="35" viewBox="0 0 35 35" fill="none" xmlns="http://www.w3.org/2000/svg">
<path d="M24.2506 20.2578L24.9156 19.5971L23.3712 18.0455L22.7091 18.7061L24.2506 20.2578ZM27.1453 19.32L29.9322 20.8353L30.9749 18.9132L28.1895 17.3994L27.1453 19.32ZM30.4674 23.8453L28.3966 25.9059L29.9381 27.4561L32.0089 25.3969L30.4674 23.8453ZM27.1337 26.568C25.0191 26.7663 19.5503 26.5898 13.6266 20.7011L12.0837 22.2513C18.547 28.6782 24.6997 28.9932 27.3378 28.7467L27.1337 26.568ZM13.6266 20.7011C7.98139 15.0865 7.04514 10.3659 6.92847 8.31692L4.74389 8.44088C4.88972 11.0192 6.04909 16.2517 12.0837 22.2513L13.6266 20.7011ZM15.6318 11.6886L16.0503 11.2715L14.5103 9.72129L14.0918 10.1369L15.6318 11.6886ZM16.3828 5.97046L14.5453 3.51463L12.7939 4.82713L14.6314 7.2815L16.3828 5.97046ZM8.36055 2.97942L6.07097 5.25442L7.61389 6.80608L9.90201 4.53109L8.36055 2.97942ZM14.8618 10.9128C14.0889 10.1369 14.0889 10.1369 14.0889 10.1398H14.086L14.0816 10.1457C14.0123 10.2155 13.9502 10.2923 13.8964 10.3746C13.8176 10.4913 13.7316 10.6444 13.6587 10.8384C13.4812 11.3391 13.4369 11.8773 13.5303 12.4003C13.7258 13.6617 14.5949 15.3286 16.8203 17.5423L18.3633 15.9907C16.2793 13.9198 15.7835 12.6598 15.6916 12.0648C15.6478 11.7819 15.6931 11.6419 15.7062 11.6098C15.7149 11.5904 15.7149 11.5875 15.7062 11.6011C15.6932 11.6212 15.6785 11.6402 15.6624 11.658L15.6478 11.6725L15.6333 11.6857L14.8618 10.9128ZM16.8203 17.5423C19.0472 19.7561 20.7228 20.6194 21.9858 20.8119C22.6318 20.9111 23.1524 20.8323 23.5476 20.685C23.769 20.6041 23.9758 20.4879 24.1601 20.3409L24.2331 20.2753L24.2433 20.2665L24.2476 20.2621L24.2491 20.2592C24.2491 20.2592 24.2506 20.2578 23.4791 19.4819C22.7062 18.7061 22.7106 18.7046 22.7106 18.7046L22.7135 18.7017L22.7164 18.6988L22.7251 18.6915L22.7397 18.6769L22.7951 18.6332C22.8087 18.6244 22.8053 18.6254 22.7849 18.6361C22.7485 18.6492 22.6056 18.6944 22.3183 18.6507C21.7145 18.5573 20.4458 18.0615 18.3633 15.9907L16.8203 17.5423ZM14.5453 3.51317C13.0578 1.52983 10.1353 1.21483 8.36055 2.97942L9.90201 4.53109C10.6778 3.75963 12.0545 3.83983 12.7939 4.82713L14.5453 3.51317ZM6.92993 8.31838C6.90076 7.81379 7.13264 7.28588 7.61389 6.80754L6.06951 5.25588C5.28639 6.03463 4.66951 7.13713 4.74389 8.44088L6.92993 8.31838ZM28.3966 25.9059C27.997 26.3055 27.5653 26.53 27.1351 26.5694L27.3378 28.7467C28.4097 28.6461 29.2862 28.1065 29.9395 27.4575L28.3966 25.9059ZM16.0503 11.2715C17.4868 9.84379 17.5933 7.58775 16.3843 5.97192L14.6328 7.28296C15.2206 8.069 15.1331 9.10004 14.5089 9.72275L16.0503 11.2715ZM29.9337 20.8367C31.1251 21.4842 31.3103 23.0096 30.4689 23.8467L32.0118 25.3969C33.966 23.453 33.3637 20.2111 30.9764 18.9146L29.9337 20.8367ZM24.9156 19.5986C25.4756 19.0415 26.3768 18.9044 27.1468 19.3215L28.191 17.4009C26.6101 16.5405 24.6501 16.7782 23.3726 18.0469L24.9156 19.5986Z" fill="#666666"/>
</svg>
