<svg width="49" height="47" viewBox="0 0 49 47" fill="none" xmlns="http://www.w3.org/2000/svg">
<path fill-rule="evenodd" clip-rule="evenodd" d="M6.33257 2.10726C9.37507 -0.917735 14.3851 -0.380234 16.9326 3.02477L20.0876 7.23476C22.1626 10.0048 21.9776 13.8748 19.5151 16.3223L18.9201 16.9173C18.8526 17.167 18.8457 17.4293 18.9001 17.6823C19.0576 18.7023 19.9101 20.8623 23.4801 24.4123C27.0501 27.9623 29.2251 28.8123 30.2601 28.9723C30.5209 29.0247 30.7902 29.017 31.0476 28.9498L32.0676 27.9348C34.2576 25.7598 37.6176 25.3523 40.3276 26.8248L45.1026 29.4248C49.1951 31.6448 50.2276 37.2048 46.8776 40.5373L43.3251 44.0673C42.2051 45.1798 40.7001 46.1073 38.8651 46.2798C34.3401 46.7023 23.7976 46.1623 12.7151 35.1448C2.37257 24.8598 0.387568 15.8898 0.135068 11.4698C0.0100675 9.23476 1.06507 7.34476 2.41007 6.00976L6.33257 2.10726ZM13.9326 5.27226C12.6651 3.57976 10.3051 3.44477 8.97507 4.76726L5.05007 8.66726C4.22507 9.48726 3.83007 10.3923 3.88007 11.2573C4.08007 14.7698 5.68007 22.8623 15.3601 32.4873C25.5151 42.5823 34.8926 42.8848 38.5176 42.5448C39.2576 42.4773 39.9926 42.0923 40.6801 41.4098L44.2301 37.8773C45.6751 36.4423 45.3576 33.8273 43.3126 32.7173L38.5376 30.1198C37.2176 29.4048 35.6726 29.6398 34.7126 30.5948L33.5751 31.7273L32.2501 30.3973C33.5751 31.7273 33.5726 31.7298 33.5701 31.7298L33.5676 31.7348L33.5601 31.7423L33.5426 31.7573L33.5051 31.7923C33.3996 31.8902 33.2858 31.9789 33.1651 32.0573C32.9651 32.1898 32.7001 32.3373 32.3676 32.4598C31.6926 32.7123 30.7976 32.8473 29.6926 32.6773C27.5251 32.3448 24.6526 30.8673 20.8351 27.0723C17.0201 23.2773 15.5301 20.4223 15.1951 18.2573C15.0226 17.1523 15.1601 16.2573 15.4151 15.5823C15.5554 15.2024 15.7563 14.8478 16.0101 14.5323L16.0901 14.4448L16.1251 14.4073L16.1401 14.3923L16.1476 14.3848L16.1526 14.3798L16.8726 13.6648C17.9426 12.5973 18.0926 10.8298 17.0851 9.48226L13.9326 5.27226Z" fill="white"/>
</svg>
