<svg width="16" height="22" viewBox="0 0 16 22" fill="none" xmlns="http://www.w3.org/2000/svg">
<path d="M2.78864 1.26703L4.2115 0.838458C4.8592 0.64305 5.55588 0.690029 6.17149 0.970624C6.78709 1.25122 7.27955 1.74625 7.55692 2.36332L8.44235 4.33303C8.68094 4.86365 8.7474 5.45566 8.63242 6.02598C8.51743 6.5963 8.22677 7.11631 7.80121 7.51303L6.25407 8.9556C6.23555 8.97399 6.21995 8.99509 6.20778 9.01817C6.04578 9.34903 6.29178 10.2327 7.06235 11.5682C7.9315 13.0733 8.60264 13.6682 8.91378 13.5765L10.9444 12.955C11.5005 12.7852 12.0958 12.7937 12.6468 12.9792C13.1979 13.1647 13.6771 13.518 14.0172 13.9896L15.2755 15.7322C15.6705 16.2793 15.8535 16.9513 15.7905 17.6232C15.7274 18.2951 15.4226 18.9212 14.9326 19.3853L13.8501 20.4096C13.4736 20.7662 13.0165 21.0264 12.5177 21.1681C12.0189 21.3097 11.4932 21.3286 10.9855 21.223C7.97092 20.5956 5.27007 18.1682 2.85978 13.9939C0.448639 9.81703 -0.303076 6.25989 0.665496 3.33446C0.827629 2.84469 1.10527 2.40115 1.47496 2.0413C1.84465 1.68146 2.29467 1.41589 2.78864 1.26703ZM3.1615 2.49789C2.8651 2.58716 2.59456 2.74647 2.37271 2.96234C2.15087 3.17822 1.98424 3.44432 1.88692 3.73817C1.05207 6.25903 1.72835 9.46132 3.97407 13.351C6.21807 17.2382 8.65064 19.4239 11.2486 19.9639C11.5533 20.0271 11.8687 20.0157 12.1679 19.9306C12.4672 19.8455 12.7414 19.6893 12.9672 19.4753L14.0489 18.4519C14.3128 18.2021 14.4771 17.8649 14.5111 17.5031C14.5452 17.1413 14.4467 16.7794 14.2341 16.4847L12.9758 14.7413C12.7927 14.4874 12.5347 14.2972 12.238 14.1973C11.9414 14.0974 11.6209 14.0928 11.3215 14.1842L9.28578 14.8073C8.1595 15.1425 7.10007 14.2039 5.94978 12.2102C4.97521 10.5233 4.6375 9.30446 5.05407 8.45332C5.13521 8.2876 5.24321 8.1416 5.37807 8.01532L6.92521 6.57274C7.15444 6.35913 7.31103 6.07909 7.37298 5.77194C7.43493 5.46479 7.39915 5.14595 7.27064 4.86017L6.38435 2.89132C6.235 2.55897 5.96978 2.29234 5.63823 2.14123C5.30667 1.99013 4.93145 1.96487 4.58264 2.07017L3.1615 2.49789Z" fill="white"/>
</svg>
