<svg width="18" height="21" viewBox="0 0 18 21" fill="none" xmlns="http://www.w3.org/2000/svg">
<path d="M9 1.75C9.8288 1.75 10.6237 2.07924 11.2097 2.66529C11.7958 3.25134 12.125 4.0462 12.125 4.875V5.5H5.875V4.875C5.875 4.0462 6.20424 3.25134 6.79029 2.66529C7.37634 2.07924 8.1712 1.75 9 1.75ZM13.375 5.5V4.875C13.375 3.71468 12.9141 2.60188 12.0936 1.78141C11.2731 0.960936 10.1603 0.5 9 0.5C7.83968 0.5 6.72688 0.960936 5.90641 1.78141C5.08594 2.60188 4.625 3.71468 4.625 4.875V5.5H0.25V18C0.25 18.663 0.513392 19.2989 0.982233 19.7678C1.45107 20.2366 2.08696 20.5 2.75 20.5H15.25C15.913 20.5 16.5489 20.2366 17.0178 19.7678C17.4866 19.2989 17.75 18.663 17.75 18V5.5H13.375ZM1.5 6.75H16.5V18C16.5 18.3315 16.3683 18.6495 16.1339 18.8839C15.8995 19.1183 15.5815 19.25 15.25 19.25H2.75C2.41848 19.25 2.10054 19.1183 1.86612 18.8839C1.6317 18.6495 1.5 18.3315 1.5 18V6.75Z" fill="white"/>
</svg>
