<svg width="31" height="24" viewBox="0 0 31 24" fill="none" xmlns="http://www.w3.org/2000/svg">
<path d="M0.916504 10.0417L5.01005 5.43773C5.55732 4.82185 6.22886 4.32889 6.98043 3.99131C7.732 3.65374 8.54656 3.4792 9.37046 3.47919H9.6665M0.916504 22.4375H8.93734L14.7707 18.0625C14.7707 18.0625 15.9519 17.2648 17.6873 15.875C21.3332 12.9584 17.6873 8.34127 14.0415 10.7709C11.0723 12.7498 8.20817 14.4167 8.20817 14.4167" stroke="#133047" stroke-width="1.5" stroke-linecap="round" stroke-linejoin="round"/>
<path d="M9.6665 13.6875V4.20835C9.6665 3.43481 9.9738 2.69294 10.5208 2.14596C11.0678 1.59898 11.8096 1.29169 12.5832 1.29169H27.1665C27.9401 1.29169 28.6819 1.59898 29.2289 2.14596C29.7759 2.69294 30.0832 3.43481 30.0832 4.20835V12.9584C30.0832 13.7319 29.7759 14.4738 29.2289 15.0207C28.6819 15.5677 27.9401 15.875 27.1665 15.875H17.6873" stroke="#133047" stroke-width="1.5"/>
<path d="M26.4375 8.59794L26.4521 8.58189M13.3125 8.59794L13.3271 8.58189M19.875 11.5C19.1015 11.5 18.3596 11.1927 17.8126 10.6457C17.2656 10.0988 16.9583 9.3569 16.9583 8.58335C16.9583 7.80981 17.2656 7.06794 17.8126 6.52096C18.3596 5.97398 19.1015 5.66669 19.875 5.66669C20.6485 5.66669 21.3904 5.97398 21.9374 6.52096C22.4844 7.06794 22.7917 7.80981 22.7917 8.58335C22.7917 9.3569 22.4844 10.0988 21.9374 10.6457C21.3904 11.1927 20.6485 11.5 19.875 11.5Z" stroke="#133047" stroke-width="1.5" stroke-linecap="round" stroke-linejoin="round"/>
</svg>
