<svg width="50" height="50" viewBox="0 0 50 50" fill="none" xmlns="http://www.w3.org/2000/svg">
<g clip-path="url(#clip0_2042_5725)">
<mask id="mask0_2042_5725" style="mask-type:luminance" maskUnits="userSpaceOnUse" x="0" y="0" width="50" height="50">
<path d="M0 0H50V50H0V0Z" fill="white"/>
</mask>
<g mask="url(#mask0_2042_5725)">
<path fill-rule="evenodd" clip-rule="evenodd" d="M11.2156 30.2188C9.35175 29.7572 7.69615 28.6847 6.51293 27.1725C5.32972 25.6602 4.68707 23.7952 4.6875 21.875V21.0938C4.6875 18.8145 5.59291 16.6287 7.20455 15.0171C8.81619 13.4054 11.002 12.5 13.2812 12.5H14.0625C16.2919 12.498 18.4346 13.3633 20.0373 14.913C21.64 16.4626 22.577 18.575 22.65 20.8031V20.8125H22.6562V21.875C22.6562 22.2854 22.6281 22.6875 22.5719 23.0813C22.5094 23.8979 22.4156 24.7 22.2906 25.4875C21.9611 27.5506 21.3742 29.5642 20.5437 31.4813C19.0548 34.9155 16.7326 37.9241 13.7875 40.2344L13.4813 40.4719C13.3518 40.5704 13.1939 40.6241 13.0312 40.625C12.8968 40.6245 12.7647 40.5893 12.6478 40.5228C12.531 40.4563 12.4332 40.3608 12.3641 40.2454C12.2949 40.1301 12.2567 39.9989 12.2532 39.8645C12.2496 39.73 12.2808 39.597 12.3438 39.4781C13.0854 38.0677 13.7631 36.6245 14.375 35.1531C14.9906 33.6719 15.6125 31.9875 16.1156 30.2219C15.444 30.388 14.7544 30.471 14.0625 30.4688H13.2812C12.5667 30.4667 11.8781 30.3833 11.2156 30.2188ZM9.5 34.6094C6.75549 33.7943 4.34784 32.1141 2.63591 29.8193C0.923972 27.5245 -0.000596947 24.738 2.89162e-07 21.875V21.0938C2.89162e-07 17.5713 1.39927 14.1932 3.88999 11.7025C6.38071 9.21177 9.75884 7.8125 13.2812 7.8125H14.0625C18.6 7.8125 22.6031 10.0875 25 13.5562C26.2213 11.7844 27.855 10.3358 29.7603 9.33525C31.6656 8.3347 33.7855 7.81212 35.9375 7.8125H36.7188C40.1951 7.81179 43.5331 9.17411 46.0163 11.607C48.4994 14.0399 49.9297 17.3494 50 20.825V21.875C50 22.4479 49.9635 23.0135 49.8906 23.5719C49.2438 31.7594 45.6469 39.0906 38.9906 44.1938C38.0423 44.9192 36.8815 45.3124 35.6875 45.3125C31.4969 45.3125 28.9812 40.8594 30.85 37.3C31.1969 36.6406 31.6625 35.7125 32.1562 34.6125C29.7233 33.888 27.5489 32.4815 25.8906 30.5594C24.1981 35.9861 20.8582 40.7514 16.3344 44.1938C15.386 44.9192 14.2253 45.3124 13.0312 45.3125C8.84063 45.3125 6.325 40.8594 8.19375 37.3C8.54062 36.6406 9.00625 35.7125 9.5 34.6125M33.875 30.2188C34.5375 30.3833 35.226 30.4667 35.9406 30.4688H36.7219C37.4136 30.4679 38.1028 30.385 38.775 30.2219C38.2055 32.2124 37.4953 34.16 36.65 36.05C36.1398 37.2109 35.5906 38.3543 35.0031 39.4781C34.9402 39.597 34.909 39.73 34.9126 39.8645C34.9161 39.9989 34.9543 40.1301 35.0235 40.2454C35.0926 40.3608 35.1903 40.4563 35.3072 40.5228C35.4241 40.5893 35.5562 40.6245 35.6906 40.625C35.8533 40.6241 36.0112 40.5704 36.1406 40.4719L36.4469 40.2344C37.3885 39.4885 38.2552 38.6885 39.0469 37.8344C40.8915 35.8517 42.363 33.5523 43.3906 31.0469C44.1223 29.2601 44.6446 27.3945 44.9469 25.4875C45.0762 24.6899 45.1711 23.887 45.2313 23.0813C45.2875 22.6854 45.3156 22.2833 45.3156 21.875V20.8156H45.3125V20.8031C45.2394 18.5739 44.3016 16.4606 42.6975 14.9108C41.0935 13.361 38.9492 12.4964 36.7188 12.5H35.9344C33.6552 12.5 31.4693 13.4054 29.8577 15.0171C28.246 16.6287 27.3406 18.8145 27.3406 21.0938V21.875C27.3406 25.9062 30.1219 29.2938 33.8688 30.2188" fill="black"/>
</g>
</g>
<defs>
<clipPath id="clip0_2042_5725">
<rect width="50" height="50" fill="white"/>
</clipPath>
</defs>
</svg>
