<svg width="13" height="14" viewBox="0 0 13 14" fill="none" xmlns="http://www.w3.org/2000/svg">
<path d="M2.72102 13.6667C2.34768 13.6667 2.0299 13.5356 1.76768 13.2734C1.50546 13.0111 1.37435 12.6936 1.37435 12.3209V2.00002H0.541016V1.16669H3.87435V0.525024H8.87435V1.16669H12.2077V2.00002H11.3743V12.3209C11.3743 12.7042 11.246 13.0245 10.9893 13.2817C10.7327 13.5389 10.4121 13.6672 10.0277 13.6667H2.72102ZM10.541 2.00002H2.20768V12.3209C2.20768 12.4703 2.25574 12.5931 2.35185 12.6892C2.44796 12.7853 2.57102 12.8334 2.72102 12.8334H10.0285C10.1563 12.8334 10.2738 12.78 10.381 12.6734C10.4882 12.5667 10.5416 12.4489 10.541 12.32V2.00002ZM4.54768 11.1667H5.38102V3.66669H4.54768V11.1667ZM7.36768 11.1667H8.20102V3.66669H7.36768V11.1667Z" fill="#666666"/>
</svg>
