<svg width="16" height="18" viewBox="0 0 16 18" fill="none" xmlns="http://www.w3.org/2000/svg">
<path d="M1.45898 16.5H14.7923M2.84732 9.9892C2.492 10.3453 2.29241 10.8278 2.29232 11.3309V14H4.97815C5.48148 14 5.96398 13.8 6.31982 13.4434L14.2365 5.52254C14.5917 5.16637 14.7911 4.68388 14.7911 4.18087C14.7911 3.67786 14.5917 3.19537 14.2365 2.8392L13.4548 2.05587C13.2785 1.8795 13.0692 1.7396 12.8388 1.64418C12.6084 1.54875 12.3615 1.49968 12.1121 1.49976C11.8628 1.49983 11.6159 1.54906 11.3855 1.64463C11.1552 1.74019 10.946 1.88022 10.7698 2.0567L2.84732 9.9892Z" stroke="#666666" stroke-width="1.5" stroke-linecap="round" stroke-linejoin="round"/>
</svg>
