<svg width="25" height="25" viewBox="0 0 25 25" fill="none" xmlns="http://www.w3.org/2000/svg">
<path d="M19.3021 9.37496L13.5417 3.61454C13.3953 3.46799 13.1967 3.38556 12.9896 3.38538H8.33333C7.5736 3.38538 6.84498 3.68718 6.30777 4.22439C5.77055 4.76161 5.46875 5.49022 5.46875 6.24996V18.75C5.46875 19.5097 5.77055 20.2383 6.30777 20.7755C6.84498 21.3127 7.5736 21.6145 8.33333 21.6145H16.6667C17.4264 21.6145 18.155 21.3127 18.6922 20.7755C19.2294 20.2383 19.5312 19.5097 19.5312 18.75V9.89579C19.523 9.69955 19.4412 9.51359 19.3021 9.37496ZM13.8021 6.05204L16.8646 9.11454H13.8021V6.05204ZM16.6667 20.052H8.33333C7.988 20.052 7.65681 19.9149 7.41262 19.6707C7.16843 19.4265 7.03125 19.0953 7.03125 18.75V6.24996C7.03125 5.90463 7.16843 5.57344 7.41262 5.32925C7.65681 5.08506 7.988 4.94788 8.33333 4.94788H12.2396V9.89579C12.2423 10.1022 12.3255 10.2993 12.4714 10.4452C12.6173 10.5912 12.8145 10.6743 13.0208 10.677H17.9688V18.75C17.9688 19.0953 17.8316 19.4265 17.5874 19.6707C17.3432 19.9149 17.012 20.052 16.6667 20.052Z" fill="black"/>
<path d="M14.0522 15.4688C13.4116 15.0668 12.9296 14.456 12.6876 13.7396C12.9119 13.0694 12.9796 12.3567 12.8855 11.6563C12.8555 11.4798 12.7694 11.3177 12.64 11.194C12.5107 11.0702 12.345 10.9914 12.1673 10.9692C11.9897 10.947 11.8097 10.9826 11.6538 11.0707C11.498 11.1588 11.3747 11.2947 11.3022 11.4583C11.1836 12.3004 11.273 13.1588 11.5626 13.9583C11.1669 14.8826 10.7254 15.7865 10.2397 16.6667C9.50007 17.0833 8.48966 17.7083 8.33341 18.4271C8.20841 19.0104 9.30216 20.5104 11.1667 17.2604C11.9963 16.9539 12.8454 16.7034 13.7084 16.5104C14.3463 16.876 15.0584 17.0932 15.7917 17.1458C15.9601 17.1502 16.126 17.1047 16.2686 17.0151C16.4111 16.9254 16.524 16.7956 16.593 16.642C16.662 16.4884 16.6841 16.3178 16.6565 16.1517C16.6288 15.9856 16.5526 15.8313 16.4376 15.7083C16.0001 15.2604 14.698 15.3854 14.0522 15.4688ZM9.07299 18.5938C9.36448 18.0939 9.75006 17.6553 10.2084 17.3021C9.50007 18.4271 9.07299 18.625 9.07299 18.6042V18.5938ZM12.1147 11.5C12.3855 11.5 12.3647 12.6979 12.1772 13.0208C12.0371 12.5294 12.0157 12.0118 12.1147 11.5104V11.5ZM11.2084 16.5833C11.5606 15.939 11.8669 15.2707 12.1251 14.5833C12.4016 15.0965 12.7853 15.5441 13.2501 15.8958C12.5512 16.0711 11.8683 16.3046 11.2084 16.5938V16.5833ZM16.1042 16.3958C16.1042 16.3958 15.9167 16.625 14.7188 16.1042C16.0209 16.0208 16.2397 16.3229 16.1042 16.4063V16.3958Z" fill="black"/>
</svg>
