<svg width="21" height="21" viewBox="0 0 21 21" fill="none" xmlns="http://www.w3.org/2000/svg">
<path d="M20.1354 10.5H7.26561M2.7229 10.5H0.864563M2.7229 10.5C2.7229 9.89779 2.96214 9.32019 3.38801 8.89433C3.81387 8.46846 4.39147 8.22921 4.99373 8.22921C5.59599 8.22921 6.17359 8.46846 6.59945 8.89433C7.02532 9.32019 7.26456 9.89779 7.26456 10.5C7.26456 11.1023 7.02532 11.6799 6.59945 12.1058C6.17359 12.5316 5.59599 12.7709 4.99373 12.7709C4.39147 12.7709 3.81387 12.5316 3.38801 12.1058C2.96214 11.6799 2.7229 11.1023 2.7229 10.5ZM20.1354 17.3823H14.1479M14.1479 17.3823C14.1479 17.9847 13.9081 18.563 13.4821 18.989C13.0562 19.4149 12.4784 19.6542 11.876 19.6542C11.2738 19.6542 10.6962 19.4139 10.2703 18.9881C9.84444 18.5622 9.60519 17.9846 9.60519 17.3823M14.1479 17.3823C14.1479 16.7799 13.9081 16.2027 13.4821 15.7768C13.0562 15.3508 12.4784 15.1115 11.876 15.1115C11.2738 15.1115 10.6962 15.3508 10.2703 15.7766C9.84444 16.2025 9.60519 16.7801 9.60519 17.3823M9.60519 17.3823H0.864563M20.1354 3.61776H16.901M12.3583 3.61776H0.864563M12.3583 3.61776C12.3583 3.01549 12.5976 2.4379 13.0234 2.01204C13.4493 1.58617 14.0269 1.34692 14.6291 1.34692C14.9274 1.34692 15.2226 1.40566 15.4982 1.51978C15.7737 1.6339 16.024 1.80117 16.2349 2.01204C16.4457 2.2229 16.613 2.47324 16.7271 2.74875C16.8412 3.02426 16.9 3.31955 16.9 3.61776C16.9 3.91597 16.8412 4.21126 16.7271 4.48677C16.613 4.76228 16.4457 5.01261 16.2349 5.22348C16.024 5.43434 15.7737 5.60161 15.4982 5.71573C15.2226 5.82985 14.9274 5.88859 14.6291 5.88859C14.0269 5.88859 13.4493 5.64934 13.0234 5.22348C12.5976 4.79761 12.3583 4.22002 12.3583 3.61776Z" stroke="#160216" stroke-width="0.9375" stroke-miterlimit="10" stroke-linecap="round"/>
</svg>
