<svg width="16" height="16" viewBox="0 0 16 16" fill="none" xmlns="http://www.w3.org/2000/svg">
<path d="M8 15.5C8.98491 15.5 9.96018 15.306 10.8701 14.9291C11.7801 14.5522 12.6069 13.9997 13.3033 13.3033C13.9997 12.6069 14.5522 11.7801 14.9291 10.8701C15.306 9.96018 15.5 8.98491 15.5 8C15.5 7.01509 15.306 6.03982 14.9291 5.12987C14.5522 4.21993 13.9997 3.39314 13.3033 2.6967C12.6069 2.00026 11.7801 1.44781 10.8701 1.0709C9.96018 0.693993 8.98491 0.5 8 0.5M8 15.5C7.01509 15.5 6.03982 15.306 5.12987 14.9291C4.21993 14.5522 3.39314 13.9997 2.6967 13.3033C2.00026 12.6069 1.44781 11.7801 1.0709 10.8701C0.693993 9.96018 0.5 8.98491 0.5 8C0.5 7.01509 0.693993 6.03982 1.0709 5.12987C1.44781 4.21993 2.00026 3.39314 2.6967 2.6967C3.39314 2.00026 4.21993 1.44781 5.12987 1.0709C6.03982 0.693993 7.01509 0.5 8 0.5M8 15.5C10.3008 15.5 11.2842 11.1975 11.2842 8C11.2842 4.8025 10.3008 0.5 8 0.5M8 15.5C5.69917 15.5 4.71583 11.1975 4.71583 8C4.71583 4.8025 5.69917 0.5 8 0.5M0.916667 5.5H15.0833M0.916667 10.5H15.0833" stroke="white" stroke-linecap="round" stroke-linejoin="round"/>
</svg>
