<svg width="17" height="18" viewBox="0 0 17 18" fill="none" xmlns="http://www.w3.org/2000/svg">
<path d="M16.7919 8.25008H9.15023V10.5251H14.5752C14.3002 13.7001 11.6586 15.0584 9.15856 15.0584C5.96689 15.0584 3.16689 12.5417 3.16689 9.00008C3.16689 5.58341 5.83356 2.94175 9.16689 2.94175C11.7419 2.94175 13.2502 4.58341 13.2502 4.58341L14.8336 2.93341C14.8336 2.93341 12.8002 0.666748 9.08356 0.666748C4.35023 0.666748 0.691895 4.66675 0.691895 9.00008C0.691895 13.2084 4.13356 17.3334 9.20856 17.3334C13.6669 17.3334 16.9169 14.2751 16.9169 9.75841C16.9169 8.80008 16.7919 8.25008 16.7919 8.25008Z" fill="black"/>
</svg>
