<svg width="29" height="29" viewBox="0 0 29 29" fill="none" xmlns="http://www.w3.org/2000/svg">
<path d="M14.5 2.71875C9.99707 2.71875 6.34375 6.19592 6.34375 10.4785C6.34375 15.4063 11.7812 23.2153 13.7778 25.9125C13.8607 26.0264 13.9693 26.119 14.0948 26.1829C14.2203 26.2468 14.3592 26.2801 14.5 26.2801C14.6408 26.2801 14.7797 26.2468 14.9052 26.1829C15.0307 26.119 15.1393 26.0264 15.2222 25.9125C17.2188 23.2164 22.6562 15.4102 22.6562 10.4785C22.6562 6.19592 19.0029 2.71875 14.5 2.71875Z" stroke="#D4943C" stroke-linecap="round" stroke-linejoin="round"/>
<path d="M14.5 13.5938C16.0015 13.5938 17.2188 12.3765 17.2188 10.875C17.2188 9.37348 16.0015 8.15625 14.5 8.15625C12.9985 8.15625 11.7812 9.37348 11.7812 10.875C11.7812 12.3765 12.9985 13.5938 14.5 13.5938Z" stroke="#D4943C" stroke-linecap="round" stroke-linejoin="round"/>
</svg>
