<svg width="22" height="21" viewBox="0 0 22 21" fill="none" xmlns="http://www.w3.org/2000/svg">
<path d="M19.2495 11.8324L12.6497 18.4334C12.2121 18.8708 11.6187 19.1166 11 19.1166C10.3813 19.1166 9.78791 18.8708 9.35035 18.4334L2.75051 11.8336C2.20494 11.2928 1.77157 10.6495 1.47526 9.94076C1.17896 9.23201 1.02556 8.47172 1.02388 7.70353C1.0222 6.93534 1.17226 6.17438 1.46546 5.46434C1.75866 4.7543 2.18921 4.10916 2.73241 3.56597C3.2756 3.02277 3.92074 2.59221 4.63078 2.29902C5.34082 2.00582 6.10178 1.85575 6.86997 1.85744C7.63816 1.85912 8.39846 2.01251 9.10721 2.30882C9.81596 2.60512 10.4592 3.0385 11 3.58407C12.0985 2.51292 13.5748 1.91768 15.109 1.92729C16.6433 1.93691 18.112 2.5506 19.197 3.63543C20.282 4.72026 20.8959 6.18888 20.9057 7.72314C20.9155 9.2574 20.3205 10.7338 19.2495 11.8324Z" stroke="white" stroke-width="2" stroke-linecap="round" stroke-linejoin="round"/>
</svg>
