<svg width="24" height="31" viewBox="0 0 24 31" fill="none" xmlns="http://www.w3.org/2000/svg">
<path fill-rule="evenodd" clip-rule="evenodd" d="M12.3599 28.5798C14.0371 27.0578 15.5894 25.4036 17.0018 23.6331C19.9768 19.8954 21.7866 16.2102 21.909 12.9333C21.9575 11.6015 21.7371 10.2737 21.2609 9.02901C20.7847 7.78436 20.0625 6.64845 19.1375 5.68915C18.2125 4.72985 17.1036 3.96683 15.8771 3.44567C14.6506 2.92451 13.3316 2.65591 11.9989 2.65591C10.6663 2.65591 9.34734 2.92451 8.12083 3.44567C6.89432 3.96683 5.78543 4.72985 4.86041 5.68915C3.93539 6.64845 3.21321 7.78436 2.73701 9.02901C2.26081 10.2737 2.04037 11.6015 2.08884 12.9333C2.2128 16.2102 4.02405 19.8954 6.99759 23.6331C8.40993 25.4036 9.96222 27.0578 11.6395 28.5798C11.8009 28.7256 11.9209 28.8316 11.9997 28.8977L12.3599 28.5798ZM10.9234 30.2787C10.9234 30.2787 0.333008 21.3595 0.333008 12.5833C0.333008 9.4891 1.56217 6.52164 3.7501 4.33371C5.93802 2.14579 8.90548 0.916626 11.9997 0.916626C15.0939 0.916626 18.0613 2.14579 20.2493 4.33371C22.4372 6.52164 23.6663 9.4891 23.6663 12.5833C23.6663 21.3595 13.0759 30.2787 13.0759 30.2787C12.4868 30.8212 11.517 30.8154 10.9234 30.2787ZM11.9997 16.6666C13.0826 16.6666 14.1213 16.2364 14.887 15.4706C15.6528 14.7049 16.083 13.6663 16.083 12.5833C16.083 11.5003 15.6528 10.4617 14.887 9.69594C14.1213 8.93017 13.0826 8.49996 11.9997 8.49996C10.9167 8.49996 9.87809 8.93017 9.11232 9.69594C8.34655 10.4617 7.91634 11.5003 7.91634 12.5833C7.91634 13.6663 8.34655 14.7049 9.11232 15.4706C9.87809 16.2364 10.9167 16.6666 11.9997 16.6666ZM11.9997 18.4166C10.4526 18.4166 8.96885 17.802 7.87489 16.7081C6.78092 15.6141 6.16634 14.1304 6.16634 12.5833C6.16634 11.0362 6.78092 9.55247 7.87489 8.4585C8.96885 7.36454 10.4526 6.74996 11.9997 6.74996C13.5468 6.74996 15.0305 7.36454 16.1245 8.4585C17.2184 9.55247 17.833 11.0362 17.833 12.5833C17.833 14.1304 17.2184 15.6141 16.1245 16.7081C15.0305 17.802 13.5468 18.4166 11.9997 18.4166Z" fill="black"/>
</svg>
