<svg width="35" height="35" viewBox="0 0 35 35" fill="none" xmlns="http://www.w3.org/2000/svg">
<path d="M17.5 31.7188C22.9688 24.0625 27.3438 17.5 27.3438 13.125C27.3437 10.5143 26.3066 8.01048 24.4606 6.16442C22.6145 4.31836 20.1107 3.28125 17.5 3.28125C14.8893 3.28125 12.3855 4.31836 10.5394 6.16442C8.69336 8.01048 7.65625 10.5143 7.65625 13.125C7.65625 17.5 12.0312 24.0625 17.5 31.7188Z" stroke="#666666"/>
<path d="M21.875 13.125C21.875 14.2853 21.4141 15.3981 20.5936 16.2186C19.7731 17.0391 18.6603 17.5 17.5 17.5C16.3397 17.5 15.2269 17.0391 14.4064 16.2186C13.5859 15.3981 13.125 14.2853 13.125 13.125C13.125 11.9647 13.5859 10.8519 14.4064 10.0314C15.2269 9.21094 16.3397 8.75 17.5 8.75C18.6603 8.75 19.7731 9.21094 20.5936 10.0314C21.4141 10.8519 21.875 11.9647 21.875 13.125Z" stroke="#666666"/>
</svg>
