<svg width="16" height="22" viewBox="0 0 16 22" fill="none" xmlns="http://www.w3.org/2000/svg">
<path d="M8 20.75C11.75 15.5 14.75 11 14.75 8C14.75 6.20979 14.0388 4.4929 12.773 3.22703C11.5071 1.96116 9.79021 1.25 8 1.25C6.20979 1.25 4.4929 1.96116 3.22703 3.22703C1.96116 4.4929 1.25 6.20979 1.25 8C1.25 11 4.25 15.5 8 20.75Z" stroke="white"/>
<path d="M11 8C11 8.79565 10.6839 9.55871 10.1213 10.1213C9.55871 10.6839 8.79565 11 8 11C7.20435 11 6.44129 10.6839 5.87868 10.1213C5.31607 9.55871 5 8.79565 5 8C5 7.20435 5.31607 6.44129 5.87868 5.87868C6.44129 5.31607 7.20435 5 8 5C8.79565 5 9.55871 5.31607 10.1213 5.87868C10.6839 6.44129 11 7.20435 11 8Z" stroke="white"/>
</svg>
