<svg width="29" height="40" viewBox="0 0 29 40" fill="none" xmlns="http://www.w3.org/2000/svg">
<path d="M14.1562 8C9.65332 8 6 11.4772 6 15.7598C6 20.6875 11.4375 28.4965 13.4341 31.1938C13.517 31.3076 13.6256 31.4003 13.7511 31.4642C13.8766 31.528 14.0154 31.5613 14.1562 31.5613C14.2971 31.5613 14.4359 31.528 14.5614 31.4642C14.6869 31.4003 14.7955 31.3076 14.8784 31.1938C16.875 28.4977 22.3125 20.6915 22.3125 15.7598C22.3125 11.4772 18.6592 8 14.1562 8Z" stroke="#05B4C4" stroke-width="2" stroke-linecap="round" stroke-linejoin="round"/>
<path d="M14.5 19C16.433 19 18 17.433 18 15.5C18 13.567 16.433 12 14.5 12C12.567 12 11 13.567 11 15.5C11 17.433 12.567 19 14.5 19Z" stroke="#05B4C4" stroke-width="2" stroke-linecap="round" stroke-linejoin="round"/>
</svg>
