<svg width="21" height="30" viewBox="0 0 21 30" fill="none" xmlns="http://www.w3.org/2000/svg">
<path d="M10.3438 28.9375C15.8125 21.2812 20.1875 14.7188 20.1875 10.3438C20.1875 7.73303 19.1504 5.22923 17.3043 3.38317C15.4583 1.53711 12.9545 0.5 10.3438 0.5C7.73303 0.5 5.22923 1.53711 3.38317 3.38317C1.53711 5.22923 0.5 7.73303 0.5 10.3438C0.5 14.7188 4.875 21.2812 10.3438 28.9375Z" stroke="#666666"/>
<path d="M14.7188 10.3438C14.7188 11.5041 14.2578 12.6169 13.4373 13.4373C12.6169 14.2578 11.5041 14.7187 10.3438 14.7188C9.18343 14.7187 8.07063 14.2578 7.25016 13.4373C6.42969 12.6169 5.96875 11.5041 5.96875 10.3438C5.96875 9.18343 6.42969 8.07063 7.25016 7.25016C8.07063 6.42969 9.18343 5.96875 10.3438 5.96875C11.5041 5.96875 12.6169 6.42969 13.4373 7.25016C14.2578 8.07063 14.7188 9.18343 14.7188 10.3438Z" stroke="#666666"/>
</svg>
