<svg width="21" height="17" viewBox="0 0 21 17" fill="none" xmlns="http://www.w3.org/2000/svg">
<path d="M1.12499 1.20833V0.6875C0.986856 0.6875 0.85438 0.742373 0.756705 0.840049C0.65903 0.937724 0.604156 1.0702 0.604156 1.20833H1.12499ZM19.875 1.20833H20.3958C20.3958 1.0702 20.341 0.937724 20.2433 0.840049C20.1456 0.742373 20.0131 0.6875 19.875 0.6875V1.20833ZM1.12499 1.72917H19.875V0.6875H1.12499V1.72917ZM19.3542 1.20833V13.7083H20.3958V1.20833H19.3542ZM17.7917 15.2708H3.20832V16.3125H17.7917V15.2708ZM1.64582 13.7083V1.20833H0.604156V13.7083H1.64582ZM3.20832 15.2708C2.79392 15.2708 2.39649 15.1062 2.10347 14.8132C1.81044 14.5202 1.64582 14.1227 1.64582 13.7083H0.604156C0.604156 14.399 0.878523 15.0614 1.3669 15.5498C1.85528 16.0381 2.51766 16.3125 3.20832 16.3125V15.2708ZM19.3542 13.7083C19.3542 14.1227 19.1895 14.5202 18.8965 14.8132C18.6035 15.1062 18.2061 15.2708 17.7917 15.2708V16.3125C18.4823 16.3125 19.1447 16.0381 19.6331 15.5498C20.1215 15.0614 20.3958 14.399 20.3958 13.7083H19.3542Z" fill="white"/>
<path d="M1.125 1.20837L10.5 10.5834L19.875 1.20837" stroke="white" stroke-width="1.20833" stroke-linecap="round" stroke-linejoin="round"/>
</svg>
