<svg width="35" height="27" viewBox="0 0 35 27" fill="none" xmlns="http://www.w3.org/2000/svg">
<path fill-rule="evenodd" clip-rule="evenodd" d="M32.7031 3.68375L18.8934 15.12C18.501 15.4451 18.0074 15.623 17.4978 15.623C16.9882 15.623 16.4946 15.4451 16.1022 15.12L2.29906 3.68375C2.225 3.90668 2.18733 4.14009 2.1875 4.375V21.875C2.1875 22.4552 2.41797 23.0116 2.8282 23.4218C3.23844 23.832 3.79484 24.0625 4.375 24.0625H30.625C31.2052 24.0625 31.7616 23.832 32.1718 23.4218C32.582 23.0116 32.8125 22.4552 32.8125 21.875V4.375C32.8134 4.14021 32.7764 3.9068 32.7031 3.68375ZM4.375 0H30.625C31.7853 0 32.8981 0.460936 33.7186 1.28141C34.5391 2.10188 35 3.21468 35 4.375V21.875C35 23.0353 34.5391 24.1481 33.7186 24.9686C32.8981 25.7891 31.7853 26.25 30.625 26.25H4.375C3.21468 26.25 2.10188 25.7891 1.28141 24.9686C0.460936 24.1481 0 23.0353 0 21.875V4.375C0 3.21468 0.460936 2.10188 1.28141 1.28141C2.10188 0.460936 3.21468 0 4.375 0ZM3.91562 2.1875L16.1131 12.2566C16.5038 12.5792 16.9943 12.7563 17.501 12.7575C18.0077 12.7587 18.4991 12.5839 18.8912 12.2631L31.2112 2.1875H3.91562Z" fill="black"/>
</svg>
