<svg width="66" height="66" viewBox="0 0 66 66" fill="none" xmlns="http://www.w3.org/2000/svg">
<g clip-path="url(#clip0_465_3432)">
<path d="M63.5486 35.4326C63.0832 41.2807 60.9489 46.8723 57.3991 51.5431C53.8494 56.2139 49.0335 59.7675 43.5235 61.7818C38.0136 63.7961 32.0412 64.1864 26.316 62.9063C20.5908 61.6262 15.3533 58.7295 11.2259 54.5604C7.09851 50.3913 4.25463 45.125 3.03213 39.3872C1.80964 33.6494 2.25992 27.6813 4.32949 22.1919C6.39905 16.7025 10.0009 11.9225 14.7071 8.41987C19.4133 4.91725 25.0261 2.8392 30.8786 2.43262" stroke="white" stroke-width="4.71429" stroke-linecap="round" stroke-linejoin="round"/>
<path d="M46.1529 38.1386C45.3015 40.3298 43.9175 42.2742 42.1258 43.796C40.3341 45.3179 38.1914 46.3691 35.8913 46.8547C33.5913 47.3402 31.2065 47.2448 28.9526 46.5771C26.6987 45.9093 24.6467 44.6903 22.9824 43.0302C21.318 41.3701 20.0937 39.3213 19.4201 37.0691C18.7466 34.8169 18.645 32.4324 19.1247 30.1311C19.6043 27.8298 20.65 25.6844 22.1672 23.8888C23.6845 22.0932 25.6253 20.7041 27.8143 19.8472M33 33L44.7857 21.2143M44.7857 21.2143L54.2143 23.5715L63.6429 14.1429L54.2143 11.7857L51.8571 2.35718L42.4286 11.7857L44.7857 21.2143Z" stroke="white" stroke-width="4.71429" stroke-linecap="round" stroke-linejoin="round"/>
</g>
<defs>
<clipPath id="clip0_465_3432">
<rect width="66" height="66" fill="white"/>
</clipPath>
</defs>
</svg>
