<svg width="14" height="20" viewBox="0 0 14 20" fill="none" xmlns="http://www.w3.org/2000/svg">
<path d="M11.727 19.937H2.27298C1.64559 19.8996 1.05836 19.6159 0.639054 19.1477C0.219746 18.6795 0.00228438 18.0647 0.0339814 17.437V2.56299C0.00228438 1.93528 0.219746 1.32045 0.639054 0.852268C1.05836 0.38408 1.64559 0.100416 2.27298 0.0629883H11.727C12.3544 0.100416 12.9416 0.38408 13.3609 0.852268C13.7802 1.32045 13.9977 1.93528 13.966 2.56299V17.437C13.9977 18.0647 13.7802 18.6795 13.3609 19.1477C12.9416 19.6159 12.3544 19.8996 11.727 19.937ZM2.27298 1.06299C1.91127 1.10119 1.57894 1.27966 1.34731 1.56009C1.11567 1.84052 1.00319 2.20057 1.03398 2.56299V17.437C1.00319 17.7994 1.11567 18.1595 1.34731 18.4399C1.57894 18.7203 1.91127 18.8988 2.27298 18.937H11.727C12.0887 18.8988 12.421 18.7203 12.6527 18.4399C12.8843 18.1595 12.9968 17.7994 12.966 17.437V2.56299C12.9968 2.20057 12.8843 1.84052 12.6527 1.56009C12.421 1.27966 12.0887 1.10119 11.727 1.06299H2.27298Z" fill="white"/>
</svg>
