<svg width="22" height="69" viewBox="0 0 22 69" fill="none" xmlns="http://www.w3.org/2000/svg">
<path d="M21.6124 35.6608L2.54987 68.4733C2.46131 68.6257 2.35618 68.7467 2.24048 68.8291C2.12478 68.9116 2.00077 68.9541 1.87553 68.9541C1.7503 68.9541 1.62629 68.9116 1.51058 68.8291C1.39488 68.7467 1.28975 68.6257 1.20119 68.4733C1.11264 68.3209 1.04239 68.1399 0.994469 67.9408C0.946543 67.7416 0.921875 67.5281 0.921875 67.3126C0.921875 67.097 0.946543 66.8835 0.994469 66.6844C1.04239 66.4852 1.11264 66.3043 1.20119 66.1518L19.5894 34.5001L1.20119 2.8483C1.02235 2.54045 0.921875 2.12292 0.921875 1.68756C0.921875 1.2522 1.02235 0.834663 1.20119 0.526815C1.38004 0.218967 1.62261 0.0460205 1.87553 0.0460205C2.12846 0.0460205 2.37102 0.218967 2.54987 0.526815L21.6124 33.3393C21.701 33.4917 21.7713 33.6726 21.8193 33.8718C21.8672 34.071 21.8919 34.2845 21.8919 34.5001C21.8919 34.7157 21.8672 34.9292 21.8193 35.1283C21.7713 35.3275 21.701 35.5084 21.6124 35.6608Z" fill="#CCCCCC"/>
</svg>
