<svg width="20" height="19" viewBox="0 0 20 19" fill="none" xmlns="http://www.w3.org/2000/svg">
<path d="M13.629 12.891L14.085 12.438L13.026 11.374L12.572 11.827L13.629 12.891ZM15.614 12.248L17.525 13.287L18.24 11.969L16.33 10.931L15.614 12.248ZM17.892 15.351L16.472 16.764L17.529 17.827L18.949 16.415L17.892 15.351ZM15.606 17.218C14.156 17.354 10.406 17.233 6.34399 13.195L5.28599 14.258C9.71799 18.665 13.937 18.881 15.746 18.712L15.606 17.218ZM6.34399 13.195C2.47299 9.34496 1.83099 6.10796 1.75099 4.70296L0.25299 4.78796C0.35299 6.55596 1.14799 10.144 5.28599 14.258L6.34399 13.195ZM7.71899 7.01496L8.00599 6.72896L6.94999 5.66596L6.66299 5.95096L7.71899 7.01496ZM8.23399 3.09396L6.97399 1.40996L5.77299 2.30996L7.03299 3.99296L8.23399 3.09396ZM2.73299 1.04296L1.16299 2.60296L2.22099 3.66696L3.78999 2.10696L2.73299 1.04296ZM7.19099 6.48296C6.66099 5.95096 6.66099 5.95096 6.66099 5.95296H6.65899L6.65599 5.95696C6.60847 6.00487 6.56592 6.05748 6.52899 6.11396C6.47499 6.19396 6.41599 6.29896 6.36599 6.43196C6.24427 6.77529 6.21394 7.14437 6.27799 7.50296C6.41199 8.36796 7.00799 9.51096 8.53399 11.029L9.59199 9.96496C8.16299 8.54496 7.82299 7.68096 7.75999 7.27296C7.72999 7.07896 7.76099 6.98296 7.76999 6.96096C7.77599 6.94763 7.77599 6.94563 7.76999 6.95496C7.76108 6.96876 7.75104 6.9818 7.73999 6.99396L7.72999 7.00396L7.71999 7.01296L7.19099 6.48296ZM8.53399 11.029C10.061 12.547 11.21 13.139 12.076 13.271C12.519 13.339 12.876 13.285 13.147 13.184C13.2988 13.1284 13.4406 13.0487 13.567 12.948L13.617 12.903L13.624 12.897L13.627 12.894L13.628 12.892C13.628 12.892 13.629 12.891 13.1 12.359C12.57 11.827 12.573 11.826 12.573 11.826L12.575 11.824L12.577 11.822L12.583 11.817L12.593 11.807L12.631 11.777C12.6403 11.771 12.638 11.7716 12.624 11.779C12.599 11.788 12.501 11.819 12.304 11.789C11.89 11.725 11.02 11.385 9.59199 9.96496L8.53399 11.029ZM6.97399 1.40896C5.95399 0.0489599 3.94999 -0.16704 2.73299 1.04296L3.78999 2.10696C4.32199 1.57796 5.26599 1.63296 5.77299 2.30996L6.97399 1.40896ZM1.75199 4.70396C1.73199 4.35796 1.89099 3.99596 2.22099 3.66796L1.16199 2.60396C0.62499 3.13796 0.20199 3.89396 0.25299 4.78796L1.75199 4.70396ZM16.472 16.764C16.198 17.038 15.902 17.192 15.607 17.219L15.746 18.712C16.481 18.643 17.082 18.273 17.53 17.828L16.472 16.764ZM8.00599 6.72896C8.99099 5.74996 9.06399 4.20296 8.23499 3.09496L7.03399 3.99396C7.43699 4.53296 7.37699 5.23996 6.94899 5.66696L8.00599 6.72896ZM17.526 13.288C18.343 13.732 18.47 14.778 17.893 15.352L18.951 16.415C20.291 15.082 19.878 12.859 18.241 11.97L17.526 13.288ZM14.085 12.439C14.469 12.057 15.087 11.963 15.615 12.249L16.331 10.932C15.247 10.342 13.903 10.505 13.027 11.375L14.085 12.439Z" fill="white"/>
</svg>
