<svg width="85" height="33" viewBox="0 0 85 33" fill="none" xmlns="http://www.w3.org/2000/svg">
<g clip-path="url(#clip0_98_1008)">
<path d="M51.2861 19.2566C51.2861 21.6816 50.4909 23.9632 48.6549 24.0455C46.4966 24.1678 46.2787 22.3967 46.2787 19.8611V10.6032H49.4755L49.4894 10.0246H46.2926L46.2787 6.36475H44.1204L44.1344 10.0246H42.5209L42.507 10.6032H44.1204V19.4495C44.1204 22.8671 45.6226 24.5559 48.022 24.5559C50.9244 24.5559 51.6918 22.018 51.6918 19.2449L51.4136 19.2566H51.2861Z" fill="#EC2526"/>
<path d="M60.4268 19.2566C60.4268 21.6816 59.6317 23.9632 57.7956 24.0455C55.6374 24.1678 55.4195 22.3967 55.4195 19.8611V10.6032H58.6163L58.6302 10.0246H55.4334L55.4195 6.36475H53.2612L53.2751 10.0246H51.6616L51.6477 10.6032H53.2612V19.4495C53.2612 22.8671 54.7634 24.5559 57.1628 24.5559C60.0652 24.5559 60.8325 22.018 60.8325 19.2449L60.5543 19.2566H60.4268Z" fill="#EC2526"/>
<path d="M28.0713 11.1652C27.4756 10.5607 26.7708 10.0503 25.6233 10.0503C23.5439 10.0503 22.3685 11.6403 21.9002 13.7948C21.8562 14.0018 21.8655 14.0018 21.8655 13.7901L21.7611 10.2526H19.5426V24.5534H21.7588V19.7292C21.7913 16.5985 22.0718 11.645 24.4619 11.2452C26.2655 10.9794 27.3643 12.6658 28.0713 14.1618V11.1652Z" fill="white"/>
<path d="M36.7346 24.5418C39.9917 24.3583 41.6052 22.0368 42.4814 20.3386L42.0526 20.0234C41.6098 20.8913 40.242 23.5821 37.5599 23.8809C34.7803 24.2101 32.6151 22.6578 31.6043 19.5295C31.1407 18.1088 31.0572 16.4858 31.3887 14.8982H42.1268C41.7419 11.2971 38.5729 9.90231 36.2732 10.0552C33.2016 10.0858 28.9523 12.4402 29.0844 17.6266C29.1887 22.5166 33.1831 24.7158 36.7346 24.5418ZM35.0144 10.5632C37.685 10.0223 39.7622 11.7534 40.1145 14.3525L31.5139 14.3666C32.0355 12.3414 33.146 10.9537 35.0144 10.5632Z" fill="white"/>
<path d="M64.4304 10.3467H62.293V24.5557H64.4304V10.3467Z" fill="white"/>
<path d="M63.3617 9.03905C64.085 9.03905 64.6552 8.44632 64.6552 7.71482C64.6552 6.99272 64.0803 6.40234 63.3617 6.40234C62.643 6.40234 62.0565 6.99272 62.0565 7.71482C62.0565 8.44397 62.643 9.03905 63.3617 9.03905Z" fill="white"/>
<path d="M68.1256 24.5511H70.2839V10.542H72.1199V10.3044H70.2839V8.30045C70.2839 5.5579 71.3225 4.12547 73.2373 4.12547C74.8693 4.12547 75.8082 5.26153 76.2394 6.72219L76.4295 6.63281C75.9357 4.9981 75.0409 3.8291 72.8525 3.8291C70.5528 3.8291 68.1233 5.29211 68.1233 8.88377V10.3044H66.5098V10.5397H68.1233V24.5511H68.1256Z" fill="white"/>
<path d="M85 10.2694L84.4969 10.2671L80.2152 21.2138L80.1735 21.2255L75.8245 10.2694H73.6662L79.2346 24.4785C77.5121 27.722 74.3501 27.6468 73.8563 27.1787V29.2533C76.098 30.053 78.2934 28.7734 80.1201 23.126C81.015 26.6142 79.7608 30.0059 76.9511 31.5207C73.9907 33.1272 70.2677 32.2616 68.2833 29.5073C68.2276 29.3897 68.1882 29.2697 68.1604 29.1451C68.0283 28.6535 67.9355 27.5009 68.3204 27.0682C68.4061 26.9717 68.631 26.7153 68.4687 26.5013C68.3296 26.3178 68.0468 26.3955 67.917 26.4637C67.669 26.593 67.5206 26.7788 67.4232 26.9741C67.3305 26.5813 67.1636 26.2026 66.8344 25.8968C66.1876 25.2923 65.4017 24.9865 64.7341 25.083C64.6112 25.0994 64.5023 25.1653 64.4443 25.257C64.4118 25.3088 64.3956 25.3652 64.3956 25.424C64.3863 25.4781 64.3887 25.5346 64.4072 25.5887C64.442 25.6898 64.5208 25.7745 64.6112 25.8168C65.309 26.2143 65.7819 26.9082 66.1551 27.5362C66.6165 28.2889 67.0546 28.9569 67.5809 29.7025C67.6736 29.8295 67.8335 30.0295 67.91 30.1141C69.3172 31.9276 71.501 33.0025 73.7682 33.0025C73.7937 33.0025 73.8192 33.0025 73.8447 33.0025C75.0409 32.9908 76.1907 32.6897 77.2641 32.1111C80.5652 30.3282 81.9168 26.1156 80.4818 22.0841L80.505 22.0158V22.0135L80.5258 21.9594L85 10.2694Z" fill="white"/>
<path d="M17.7967 10.1C17.7967 5.98855 14.2081 4.15626 8.81359 4.15626H5.31308V15.4205C3.2939 15.0418 2.1997 13.6705 1.63637 12.5838C0.185164 9.83189 0.479579 6.0991 1.6016 4.081C3.11308 1.34315 6.53014 0.331746 8.98978 0.766885C9.10569 0.809223 9.21928 0.863321 9.32824 0.92918C9.76638 1.18556 10.638 1.93823 10.6635 2.52155C10.6705 2.64857 10.6914 2.98962 10.9556 3.0249C11.1782 3.05783 11.3242 2.81792 11.3775 2.66268C11.4587 2.39219 11.4332 2.15463 11.3636 1.94529C11.7021 2.15698 12.0823 2.30751 12.5297 2.2887C13.4106 2.26047 14.1803 1.91706 14.5952 1.36667C14.6602 1.27259 14.688 1.15733 14.6717 1.05384C14.6602 0.992687 14.6347 0.938588 14.5952 0.893898C14.5674 0.846856 14.5257 0.809223 14.4747 0.780997C14.382 0.731603 14.2614 0.726899 14.1594 0.762181C13.3782 0.97387 12.5622 0.823335 11.869 0.651632C11.0692 0.449351 10.2857 0.294112 9.34678 0.127113C9.22624 0.108296 8.9666 0.0753666 8.81823 0.0730145C6.24732 -0.293913 2.71435 0.701026 1.02204 3.75406C-0.183433 5.91799 -0.503348 9.93303 1.05218 12.9061C1.9702 14.6678 3.43068 15.7686 5.27367 16.0861L5.31539 16.0932V24.556H7.47366V16.0744H8.81591C14.2104 16.0744 17.7967 14.2115 17.7967 10.1ZM8.81359 15.4558H7.47134V4.68314H8.81359C13.7421 4.68314 15.6384 6.66361 15.6384 10.0977C15.6408 13.5365 13.7445 15.4558 8.81359 15.4558Z" fill="white"/>
</g>
<defs>
<clipPath id="clip0_98_1008">
<rect width="85" height="33" fill="white"/>
</clipPath>
</defs>
</svg>
