<svg xmlns="http://www.w3.org/2000/svg" width="41" height="16" viewBox="0 0 41 16" fill="none">
<g clip-path="url(#clip0_424_78749)">
<path d="M3.90015 7.73513H3.29166V2.42806H3.90015C6.1361 2.42806 6.99624 3.48499 6.99624 5.07625C6.99727 6.66966 6.13713 7.73513 3.90015 7.73513ZM3.90015 2.3244H2.31291V7.64643C1.35686 7.4701 0.831905 6.81714 0.557567 6.27638C-0.114868 4.97259 0.0223005 3.19645 0.543129 2.23998C1.24238 0.945805 2.82033 0.438181 4.00535 0.656192C4.06929 0.679703 4.12808 0.708558 4.18274 0.741687C4.38901 0.864585 4.8232 1.23435 4.83764 1.56136C4.85208 1.80396 4.94696 1.67037 4.96965 1.60411C5.05628 1.31022 4.80876 1.10183 4.77679 0.955423C5.00575 1.14992 5.25327 1.37221 5.58227 1.35832C5.89786 1.34763 6.24955 1.23542 6.44241 0.97359C6.4651 0.940461 6.46922 0.893439 6.44241 0.874203C6.43416 0.845349 6.39291 0.835731 6.35062 0.850692C5.98965 0.950079 5.61424 0.889165 5.26255 0.799395C4.89643 0.704283 4.54061 0.63375 4.12808 0.557874C4.06413 0.548255 3.94965 0.534363 3.89499 0.534363C2.67491 0.354824 1.1609 0.880615 0.451339 2.18868C-0.0839278 3.16973 -0.220065 4.98969 0.465778 6.33089C0.872127 7.12705 1.50847 7.61117 2.31291 7.75223V11.7758H3.29166V7.84734H3.90015C6.34753 7.84734 7.97499 6.98492 7.97499 5.07946C7.97602 3.17293 6.34753 2.3244 3.90015 2.3244Z" fill="black"/>
<path d="M12.6359 5.57086V6.95908C12.3162 6.26657 11.817 5.48537 10.9992 5.60826C9.91522 5.79315 9.78733 8.0876 9.77289 9.5378V11.7735H8.76733V5.14873H9.77289V8.00745C9.88737 6.55725 10.2349 5.05469 11.5251 5.05469C12.0449 5.05469 12.3657 5.29087 12.6359 5.57086Z" fill="black"/>
<path d="M14.1727 7.12909H18.1279C17.968 5.92469 16.9986 4.9586 15.7868 5.20974C14.9411 5.39035 14.4099 6.19079 14.1727 7.12909ZM19.1706 9.8211C18.7735 10.6076 18.0413 11.6827 16.5644 11.7682C14.9545 11.8484 13.1424 10.8299 13.0929 8.56433C13.0331 6.16193 14.9916 5.12852 16.354 5.05692C17.3967 4.98638 18.8457 5.56882 19.02 7.23703H14.15C13.9994 7.97228 14.0263 8.78768 14.2366 9.44599C14.6946 10.8951 15.7373 11.6688 16.9986 11.516C18.2156 11.3782 18.8828 10.1791 19.084 9.77728L19.1706 9.8211Z" fill="black"/>
<path d="M23.3031 9.31245C23.3031 10.4356 22.9422 11.4926 22.1099 11.531C21.1311 11.5877 20.9341 10.7723 20.9341 9.59779V5.24398H22.3842V5.14887H20.9341V3.34814H19.9554V5.14887H19.2231V5.24398H19.9554V9.40863C19.9554 10.9913 20.6371 11.7736 21.7252 11.7736C23.0422 11.7736 23.3898 10.5981 23.3898 9.31352H23.3031V9.31245Z" fill="#ED2224"/>
<path d="M27.4101 9.31245C27.4101 10.4356 27.0491 11.4926 26.2168 11.531C25.2381 11.5877 25.0411 10.7723 25.0411 9.59779V5.24398H26.4911V5.14887H25.0411V3.34814H24.0623V5.14887H23.3301V5.24398H24.0623V9.40863C24.0623 10.9913 24.744 11.7736 25.8321 11.7736C27.1491 11.7736 27.4967 10.5981 27.4967 9.31352H27.4101V9.31245Z" fill="#ED2224"/>
<path d="M28.1587 11.7734H29.1271V5.19141H28.1587V11.7734Z" fill="black"/>
<path d="M28.6434 4.55556C28.9322 4.55556 29.1601 4.31404 29.1601 4.01588C29.1601 3.72092 28.9311 3.48047 28.6434 3.48047C28.3567 3.48047 28.1226 3.72092 28.1226 4.01588C28.1226 4.31404 28.3556 4.55556 28.6434 4.55556Z" fill="black"/>
<path d="M32.9482 2.17236C31.9045 2.17236 30.8031 2.84991 30.8031 4.51384V5.17215H30.0708V5.28116H30.8031V11.7723H31.7818V5.28116H32.6141V5.17215H31.7818V4.24347C31.7818 2.9728 32.2531 2.30915 33.1215 2.30915C33.862 2.30915 34.288 2.83495 34.4839 3.51249L34.5705 3.47081C34.3467 2.71312 33.9414 2.17236 32.9482 2.17236Z" fill="black"/>
<path d="M38.4587 5.15625H38.372L36.3826 10.4633L36.364 10.4687L34.2972 5.15625H33.3185L35.9247 11.7521C35.1429 13.2547 33.6289 13.2066 33.4051 12.9897C33.4051 13.3306 33.4051 13.9504 33.4051 13.9504C34.4478 14.3298 35.4678 13.6993 36.3083 10.9132L36.3681 10.7519C36.9075 12.5013 36.3228 14.2678 34.9181 15.0212C33.4959 15.7896 31.7704 15.3258 30.8659 14.0071C30.8381 13.9461 30.8154 13.8799 30.802 13.8126C30.7422 13.5753 30.6927 12.9982 30.9072 12.7567C31.067 12.5761 30.9072 12.6007 30.8432 12.6338C30.5782 12.7717 30.6102 13.0976 30.5287 13.2259C30.506 12.9224 30.4833 12.5804 30.244 12.3495C30.0151 12.1262 29.6861 11.9466 29.3746 11.9883C29.3344 11.9937 29.2973 12.0215 29.3065 12.0546C29.2921 12.0834 29.3158 12.1219 29.3519 12.1401C29.6778 12.3346 29.8965 12.6573 30.079 12.979C30.276 13.3146 30.472 13.6277 30.7102 13.9825C30.7504 14.0391 30.8195 14.13 30.8566 14.1727C31.4868 15.0202 32.4563 15.5 33.4577 15.5C33.9703 15.5 34.4818 15.376 34.9676 15.1153C36.4496 14.3191 37.0488 12.4329 36.4218 10.5948L38.4587 5.15625Z" fill="black"/>


</g>
<defs>
<clipPath id="clip0_424_78749">
<rect width="41" height="15" fill="white" transform="translate(0 0.5)"/>
</clipPath>
</defs>
</svg>