<svg width="50" height="38" viewBox="0 0 50 38" fill="none" xmlns="http://www.w3.org/2000/svg">
<path fill-rule="evenodd" clip-rule="evenodd" d="M11.2156 22.7188C9.35175 22.2572 7.69615 21.1847 6.51293 19.6725C5.32972 18.1602 4.68707 16.2952 4.6875 14.375V13.5938C4.6875 11.3145 5.59291 9.12869 7.20455 7.51705C8.81619 5.90541 11.002 5 13.2812 5H14.0625C16.2919 4.99799 18.4346 5.86335 20.0373 7.41298C21.64 8.96261 22.577 11.075 22.65 13.3031V13.3125H22.6562V14.375C22.6562 14.7854 22.6281 15.1875 22.5719 15.5813C22.5094 16.3979 22.4156 17.2 22.2906 17.9875C21.9611 20.0506 21.3742 22.0642 20.5437 23.9813C19.0548 27.4155 16.7326 30.4241 13.7875 32.7344L13.4813 32.9719C13.3518 33.0704 13.1939 33.1241 13.0312 33.125C12.8968 33.1245 12.7647 33.0893 12.6478 33.0228C12.531 32.9563 12.4332 32.8608 12.3641 32.7454C12.2949 32.6301 12.2567 32.4989 12.2532 32.3645C12.2496 32.23 12.2808 32.097 12.3438 31.9781C13.0854 30.5677 13.7631 29.1245 14.375 27.6531C14.9906 26.1719 15.6125 24.4875 16.1156 22.7219C15.444 22.888 14.7544 22.971 14.0625 22.9688H13.2812C12.5667 22.9667 11.8781 22.8833 11.2156 22.7188ZM9.5 27.1094C6.75549 26.2943 4.34784 24.6141 2.63591 22.3193C0.923972 20.0245 -0.000596947 17.238 2.89162e-07 14.375V13.5938C2.89162e-07 10.0713 1.39927 6.69321 3.88999 4.20249C6.38071 1.71177 9.75884 0.3125 13.2812 0.3125H14.0625C18.6 0.3125 22.6031 2.5875 25 6.05625C26.2213 4.28436 27.855 2.8358 29.7603 1.83525C31.6656 0.834697 33.7855 0.312121 35.9375 0.3125H36.7188C40.1951 0.311788 43.5331 1.67411 46.0163 4.107C48.4994 6.53988 49.9297 9.84938 50 13.325V14.375C50 14.9479 49.9635 15.5135 49.8906 16.0719C49.2438 24.2594 45.6469 31.5906 38.9906 36.6938C38.0423 37.4192 36.8815 37.8124 35.6875 37.8125C31.4969 37.8125 28.9812 33.3594 30.85 29.8C31.1969 29.1406 31.6625 28.2125 32.1562 27.1125C29.7233 26.388 27.5489 24.9815 25.8906 23.0594C24.1981 28.4861 20.8582 33.2514 16.3344 36.6938C15.386 37.4192 14.2253 37.8124 13.0312 37.8125C8.84063 37.8125 6.325 33.3594 8.19375 29.8C8.54062 29.1406 9.00625 28.2125 9.5 27.1125M33.875 22.7188C34.5375 22.8833 35.226 22.9667 35.9406 22.9688H36.7219C37.4136 22.9679 38.1028 22.885 38.775 22.7219C38.2055 24.7124 37.4953 26.66 36.65 28.55C36.1398 29.7109 35.5906 30.8543 35.0031 31.9781C34.9402 32.097 34.909 32.23 34.9126 32.3645C34.9161 32.4989 34.9543 32.6301 35.0235 32.7454C35.0926 32.8608 35.1903 32.9563 35.3072 33.0228C35.4241 33.0893 35.5562 33.1245 35.6906 33.125C35.8533 33.1241 36.0112 33.0704 36.1406 32.9719L36.4469 32.7344C37.3885 31.9885 38.2552 31.1885 39.0469 30.3344C40.8915 28.3517 42.363 26.0523 43.3906 23.5469C44.1223 21.7601 44.6446 19.8945 44.9469 17.9875C45.0762 17.1899 45.1711 16.387 45.2313 15.5813C45.2875 15.1854 45.3156 14.7833 45.3156 14.375V13.3156H45.3125V13.3031C45.2394 11.0739 44.3016 8.9606 42.6975 7.4108C41.0935 5.861 38.9492 4.99637 36.7188 5H35.9344C33.6552 5 31.4693 5.90541 29.8577 7.51705C28.246 9.12869 27.3406 11.3145 27.3406 13.5938V14.375C27.3406 18.4062 30.1219 21.7938 33.8688 22.7188" fill="url(#paint0_linear_214_9063)"/>
<defs>
<linearGradient id="paint0_linear_214_9063" x1="0" y1="19.0625" x2="50" y2="19.0625" gradientUnits="userSpaceOnUse">
<stop stop-color="#0E2031"/>
<stop offset="1" stop-color="#3F65CA"/>
</linearGradient>
</defs>
</svg>
