<svg width="22" height="21" viewBox="0 0 22 21" fill="none" xmlns="http://www.w3.org/2000/svg">
<path d="M11.1123 20.7083C8.26271 20.7083 5.84868 19.72 3.87021 17.7435C1.89271 15.766 0.903961 13.3529 0.903961 10.5043C0.903961 7.65572 1.89271 5.2417 3.87021 3.26225C5.84771 1.28281 8.26174 0.292598 11.1123 0.291626C12.8458 0.291626 14.4689 0.703362 15.9817 1.52683C17.4935 2.35031 18.7122 3.49996 19.6377 4.97579V0.291626H21.096V7.91871H13.469V6.46037H18.8648C18.1045 5.0069 17.036 3.85822 15.6594 3.01433C14.2827 2.17045 12.767 1.74899 11.1123 1.74996C8.68174 1.74996 6.61577 2.60065 4.91438 4.30204C3.21299 6.00343 2.36229 8.0694 2.36229 10.5C2.36229 12.9305 3.21299 14.9965 4.91438 16.6979C6.61577 18.3993 8.68174 19.25 11.1123 19.25C12.9838 19.25 14.6731 18.7152 16.18 17.6458C17.6869 16.5763 18.7442 15.1666 19.3519 13.4166H20.9006C20.257 15.6002 19.0349 17.3614 17.2344 18.7002C15.4338 20.0389 13.3931 20.7083 11.1123 20.7083Z" fill="#133047"/>
</svg>
