<svg width="27" height="27" viewBox="0 0 27 27" fill="none" xmlns="http://www.w3.org/2000/svg">
<path d="M24.4238 22.8263L20.25 18.6863C21.8701 16.6662 22.6547 14.1022 22.4424 11.5215C22.2301 8.94071 21.0371 6.53938 19.1087 4.81122C17.1803 3.08307 14.663 2.15945 12.0746 2.23028C9.48606 2.30111 7.02308 3.36101 5.19205 5.19203C3.36102 7.02306 2.30112 9.48604 2.23029 12.0745C2.15946 14.663 3.08308 17.1803 4.81124 19.1087C6.53939 21.0371 8.94073 22.2301 11.5215 22.4424C14.1022 22.6547 16.6662 21.8701 18.6863 20.25L22.8263 24.39C22.9308 24.4954 23.0553 24.5791 23.1924 24.6363C23.3295 24.6934 23.4765 24.7228 23.625 24.7228C23.7735 24.7228 23.9206 24.6934 24.0577 24.6363C24.1948 24.5791 24.3192 24.4954 24.4238 24.39C24.6265 24.1802 24.7399 23.8999 24.7399 23.6081C24.7399 23.3164 24.6265 23.036 24.4238 22.8263ZM12.375 20.25C10.8175 20.25 9.29494 19.7881 7.9999 18.9228C6.70486 18.0575 5.6955 16.8276 5.09946 15.3886C4.50342 13.9497 4.34747 12.3663 4.65133 10.8387C4.95519 9.31106 5.70521 7.90787 6.80655 6.80653C7.90789 5.70519 9.31108 4.95517 10.8387 4.65131C12.3663 4.34746 13.9497 4.50341 15.3886 5.09945C16.8276 5.69549 18.0575 6.70485 18.9228 7.99988C19.7882 9.29492 20.25 10.8175 20.25 12.375C20.25 14.4636 19.4203 16.4666 17.9435 17.9435C16.4666 19.4203 14.4636 20.25 12.375 20.25Z" fill="white"/>
</svg>
