<svg width="18" height="19" viewBox="0 0 18 19" fill="none" xmlns="http://www.w3.org/2000/svg">
<path d="M17.1 17.5501L11.7 12.1501M0.899994 7.6501C0.899994 8.47742 1.06295 9.29665 1.37955 10.061C1.69616 10.8254 2.16021 11.5199 2.74522 12.1049C3.33023 12.6899 4.02474 13.1539 4.78909 13.4705C5.55344 13.7871 6.37267 13.9501 7.19999 13.9501C8.02732 13.9501 8.84655 13.7871 9.6109 13.4705C10.3753 13.1539 11.0698 12.6899 11.6548 12.1049C12.2398 11.5199 12.7038 10.8254 13.0204 10.061C13.337 9.29665 13.5 8.47742 13.5 7.6501C13.5 6.82277 13.337 6.00354 13.0204 5.23919C12.7038 4.47484 12.2398 3.78033 11.6548 3.19532C11.0698 2.61032 10.3753 2.14626 9.6109 1.82966C8.84655 1.51305 8.02732 1.3501 7.19999 1.3501C6.37267 1.3501 5.55344 1.51305 4.78909 1.82966C4.02474 2.14626 3.33023 2.61032 2.74522 3.19532C2.16021 3.78033 1.69616 4.47484 1.37955 5.23919C1.06295 6.00354 0.899994 6.82277 0.899994 7.6501Z" stroke="#132F46" stroke-width="2" stroke-linecap="round" stroke-linejoin="round"/>
</svg>
