<svg width="15" height="17" viewBox="0 0 15 17" fill="none" xmlns="http://www.w3.org/2000/svg">
<path d="M12.5 0.200195C13.7729 0.200195 14.7998 1.22712 14.7998 2.5C14.7998 3.77288 13.7729 4.7998 12.5 4.7998C11.8958 4.7998 11.3514 4.56375 10.9355 4.17871L10.8271 4.07715L10.6992 4.15234L4.82422 7.57715L4.69824 7.65039L4.72949 7.79297C4.77013 7.97998 4.79977 8.15482 4.7998 8.33301C4.7998 8.5114 4.77019 8.68678 4.72949 8.87402L4.69824 9.0166L4.82422 9.08984L10.7656 12.5479L10.8926 12.6211L11.001 12.5234C11.4014 12.1616 11.9212 11.9336 12.5 11.9336C13.7312 11.9336 14.7334 12.9358 14.7334 14.167C14.7332 15.3981 13.7311 16.4004 12.5 16.4004C11.2689 16.4004 10.2668 15.3981 10.2666 14.167C10.2666 14.0016 10.2895 13.8331 10.3281 13.6709L10.3623 13.5273L10.2344 13.4521L4.30078 9.98535L4.17285 9.91113L4.06445 10.0117C3.64858 10.3968 3.10421 10.6338 2.5 10.6338C1.22712 10.6338 0.200195 9.60588 0.200195 8.33301C0.200371 7.06028 1.22723 6.0332 2.5 6.0332C3.10421 6.0332 3.64858 6.27021 4.06445 6.65527L4.17285 6.75586L4.30078 6.68066L10.1758 3.25586L10.3018 3.18262L10.2705 3.04102C10.2298 2.85372 10.2002 2.67844 10.2002 2.5C10.2002 1.22712 11.2271 0.200195 12.5 0.200195Z" fill="black" stroke="white" stroke-width="0.4"/>
</svg>
