<svg width="24" height="24" viewBox="0 0 24 24" fill="none" xmlns="http://www.w3.org/2000/svg">
<path d="M6.75 18.75H17.25M6.75 15.75H17.25M15.75 0.750013V6.00001C15.75 6.19893 15.829 6.38969 15.9697 6.53034C16.1103 6.671 16.3011 6.75001 16.5 6.75001H21.75M21.75 6.30001V22.5C21.75 22.6989 21.671 22.8897 21.5303 23.0303C21.3897 23.171 21.1989 23.25 21 23.25H3C2.80109 23.25 2.61032 23.171 2.46967 23.0303C2.32902 22.8897 2.25 22.6989 2.25 22.5V1.50001C2.25 1.3011 2.32902 1.11033 2.46967 0.969683C2.61032 0.82903 2.80109 0.750013 3 0.750013H16.275C16.3755 0.749426 16.4751 0.769041 16.5678 0.807692C16.6606 0.846344 16.7447 0.903244 16.815 0.975013L21.54 5.77501C21.6758 5.91591 21.7512 6.10432 21.75 6.30001Z" stroke="white" stroke-width="1.5" stroke-linecap="round"/>
<path d="M17.25 10.5H6.75C6.33579 10.5 6 10.8358 6 11.25V12.75C6 13.1642 6.33579 13.5 6.75 13.5H17.25C17.6642 13.5 18 13.1642 18 12.75V11.25C18 10.8358 17.6642 10.5 17.25 10.5Z" fill="white"/>
</svg>
