<svg width="31" height="21" viewBox="0 0 31 21" fill="none" xmlns="http://www.w3.org/2000/svg">
<path d="M6.62828 20.8775C5.56662 20.8775 4.66682 20.5066 3.92891 19.7648C3.19002 19.023 2.82057 18.1222 2.82057 17.0625H1.97911C1.64564 17.0625 1.36613 16.9497 1.14057 16.7242C0.915017 16.4986 0.801753 16.2186 0.800781 15.8842V2.64835C0.800781 1.97655 1.02585 1.41606 1.47599 0.966895C1.92613 0.517728 2.48661 0.292659 3.15745 0.291687H20.096C20.7445 0.291687 21.2991 0.52259 21.7599 0.984395C22.2208 1.4462 22.4517 2.00037 22.4527 2.6469V5.56356H24.6402C25.0125 5.56356 25.3654 5.64717 25.6989 5.81439C26.0334 5.98162 26.3085 6.21252 26.5243 6.5071L30.6295 12.0342C30.7083 12.1324 30.7671 12.2403 30.806 12.3579C30.8449 12.4756 30.8643 12.6034 30.8643 12.7415V15.8842C30.8643 16.2186 30.752 16.4986 30.5275 16.7242C30.3029 16.9497 30.0229 17.0625 29.6875 17.0625H28.5091C28.5091 18.1222 28.1377 19.023 27.3949 19.7648C26.6522 20.5066 25.7504 20.877 24.6897 20.8761C23.629 20.8751 22.7288 20.5047 21.9889 19.7648C21.249 19.025 20.8796 18.1242 20.8806 17.0625H10.4506C10.4506 18.1281 10.0792 19.0303 9.33641 19.7692C8.59363 20.5081 7.68995 20.8775 6.62828 20.8775ZM6.63557 19.4192C7.29182 19.4192 7.84842 19.1907 8.30536 18.7338C8.76231 18.2768 8.99078 17.7197 8.99078 17.0625C8.99078 16.4053 8.76231 15.8487 8.30536 15.3927C7.84842 14.9368 7.29182 14.7083 6.63557 14.7073C5.97932 14.7063 5.42273 14.9348 4.96578 15.3927C4.50884 15.8506 4.28036 16.4072 4.28036 17.0625C4.28036 17.7178 4.50884 18.2744 4.96578 18.7323C5.42273 19.1902 5.97932 19.4202 6.63557 19.4192ZM2.26057 15.6042H3.20411C3.4112 14.9606 3.83363 14.4074 4.47141 13.9446C5.10918 13.4818 5.83057 13.2495 6.63557 13.2475C7.40363 13.2475 8.11627 13.475 8.77349 13.93C9.42974 14.384 9.86141 14.9421 10.0685 15.6042H20.9958V2.64835C20.9958 2.38585 20.9112 2.17051 20.742 2.00231C20.5729 1.83412 20.3575 1.75002 20.096 1.75002H3.15745C2.93286 1.75002 2.72724 1.84335 2.54057 2.03002C2.35293 2.21766 2.25911 2.42377 2.25911 2.64835L2.26057 15.6042ZM24.697 19.4192C25.3533 19.4192 25.9099 19.1907 26.3668 18.7338C26.8238 18.2759 27.0522 17.7188 27.0522 17.0625C27.0522 16.4063 26.8238 15.8497 26.3668 15.3927C25.9099 14.9358 25.3533 14.7073 24.697 14.7073C24.0408 14.7073 23.4842 14.9358 23.0272 15.3927C22.5703 15.8497 22.3418 16.4063 22.3418 17.0625C22.3418 17.7188 22.5703 18.2754 23.0272 18.7323C23.4842 19.1893 24.0408 19.4192 24.697 19.4192ZM22.4512 12.6875H29.3229L25.3124 7.38794C25.2191 7.27516 25.1117 7.1862 24.9902 7.12106C24.8686 7.05592 24.733 7.02335 24.5833 7.02335H22.4527L22.4512 12.6875Z" fill="#133047"/>
</svg>
