<svg width="25" height="23" viewBox="0 0 25 23" fill="none" xmlns="http://www.w3.org/2000/svg">
<path d="M0.5 0.041626H5.4625L8.5875 11.5H19.5406L22.7583 1.84892L24.7344 2.50829L21.0417 13.5833H8.60417L8.08333 15.6666H23.4167V17.75H5.41667L6.71458 12.5531L3.87083 2.12496H0.5V0.041626ZM15.0833 1.08329V4.20829H18.2083V6.29163H15.0833V9.41663H13V6.29163H9.875V4.20829H13V1.08329H15.0833ZM4.66667 20.875C4.66667 20.3224 4.88616 19.7925 5.27686 19.4018C5.66756 19.0111 6.19747 18.7916 6.75 18.7916C7.30254 18.7916 7.83244 19.0111 8.22314 19.4018C8.61384 19.7925 8.83333 20.3224 8.83333 20.875C8.83333 21.4275 8.61384 21.9574 8.22314 22.3481C7.83244 22.7388 7.30254 22.9583 6.75 22.9583C6.19747 22.9583 5.66756 22.7388 5.27686 22.3481C4.88616 21.9574 4.66667 21.4275 4.66667 20.875ZM19.25 20.875C19.25 20.3224 19.4695 19.7925 19.8602 19.4018C20.2509 19.0111 20.7808 18.7916 21.3333 18.7916C21.8859 18.7916 22.4158 19.0111 22.8065 19.4018C23.1972 19.7925 23.4167 20.3224 23.4167 20.875C23.4167 21.4275 23.1972 21.9574 22.8065 22.3481C22.4158 22.7388 21.8859 22.9583 21.3333 22.9583C20.7808 22.9583 20.2509 22.7388 19.8602 22.3481C19.4695 21.9574 19.25 21.4275 19.25 20.875Z" fill="#133047"/>
</svg>
