<svg width="66" height="66" viewBox="0 0 66 66" fill="none" xmlns="http://www.w3.org/2000/svg">
<path d="M6.875 22.5143C7.161 16.7393 8.01625 13.1367 10.5792 10.5792C13.1367 8.01625 16.7393 7.161 22.5143 6.875M59.125 22.5143C58.839 16.7393 57.9837 13.1367 55.4207 10.5792C52.8632 8.01625 49.2607 7.161 43.4857 6.875M43.4857 59.125C49.2607 58.839 52.8632 57.9837 55.4207 55.4207C57.9837 52.8632 58.839 49.2607 59.125 43.4857M22.5143 59.125C16.7393 58.839 13.1367 57.9837 10.5792 55.4207C8.01625 52.8632 7.161 49.2607 6.875 43.4857" stroke="#05B4C4" stroke-width="4" stroke-linecap="round" stroke-linejoin="round"/>
<path d="M53.9963 31.1245C54.6645 31.9605 55 32.3813 55 33C55 33.6187 54.6645 34.0395 53.9963 34.8755C50.9905 38.6375 43.3152 46.75 33 46.75C22.6848 46.75 15.0095 38.6375 12.0037 34.8755C11.3355 34.0395 11 33.6187 11 33C11 32.3813 11.3355 31.9605 12.0037 31.1245C15.0095 27.3625 22.6848 19.25 33 19.25C43.3152 19.25 50.9905 27.3625 53.9963 31.1245Z" stroke="#05B4C4" stroke-width="4"/>
<path d="M38.5 33C38.5 31.5413 37.9205 30.1424 36.8891 29.1109C35.8576 28.0795 34.4587 27.5 33 27.5C31.5413 27.5 30.1424 28.0795 29.1109 29.1109C28.0795 30.1424 27.5 31.5413 27.5 33C27.5 34.4587 28.0795 35.8576 29.1109 36.8891C30.1424 37.9205 31.5413 38.5 33 38.5C34.4587 38.5 35.8576 37.9205 36.8891 36.8891C37.9205 35.8576 38.5 34.4587 38.5 33Z" stroke="#05B4C4" stroke-width="4"/>
</svg>
