<svg width="39" height="35" viewBox="0 0 39 35" fill="none" xmlns="http://www.w3.org/2000/svg">
<path d="M37 13.75H35.75V6.25C35.75 5.91848 35.6183 5.60054 35.3839 5.36612C35.1494 5.1317 34.8315 5 34.5 5H4.49998C4.204 5.00483 3.9159 4.90445 3.687 4.71675C3.45809 4.52905 3.30323 4.2662 3.24998 3.975V3.525C3.30323 3.2338 3.45809 2.97095 3.687 2.78325C3.9159 2.59555 4.204 2.49517 4.49998 2.5H33.975C34.3065 2.5 34.6245 2.3683 34.8589 2.13388C35.0933 1.89946 35.225 1.58152 35.225 1.25C35.225 0.918479 35.0933 0.600537 34.8589 0.366117C34.6245 0.131696 34.3065 0 33.975 0H4.49998C3.50542 0 2.55159 0.395088 1.84833 1.09835C1.14507 1.80161 0.749981 2.75544 0.749981 3.75C0.740973 3.89986 0.740973 4.05014 0.749981 4.2V29.9125C0.754888 30.5855 0.892314 31.251 1.15441 31.8709C1.41651 32.4908 1.79815 33.0531 2.27754 33.5255C2.75692 33.9979 3.32467 34.3713 3.94835 34.6243C4.57204 34.8773 5.23945 35.0049 5.91248 35H34.5C34.8315 35 35.1494 34.8683 35.3839 34.6339C35.6183 34.3995 35.75 34.0815 35.75 33.75V26.25H37C37.3315 26.25 37.6494 26.1183 37.8839 25.8839C38.1183 25.6495 38.25 25.3315 38.25 25V15C38.25 14.6685 38.1183 14.3505 37.8839 14.1161C37.6494 13.8817 37.3315 13.75 37 13.75ZM33.25 32.5H5.91248C5.21723 32.5067 4.54746 32.2386 4.04885 31.7541C3.55024 31.2695 3.26313 30.6077 3.24998 29.9125V7.35C3.65569 7.4678 4.07792 7.51847 4.49998 7.5H33.25V13.75H24.5C22.8424 13.75 21.2527 14.4085 20.0806 15.5806C18.9085 16.7527 18.25 18.3424 18.25 20C18.25 21.6576 18.9085 23.2473 20.0806 24.4194C21.2527 25.5915 22.8424 26.25 24.5 26.25H33.25V32.5ZM35.75 23.75H24.5C23.5054 23.75 22.5516 23.3549 21.8483 22.6517C21.1451 21.9484 20.75 20.9946 20.75 20C20.75 19.0054 21.1451 18.0516 21.8483 17.3483C22.5516 16.6451 23.5054 16.25 24.5 16.25H35.75V23.75Z" fill="white"/>
</svg>
