<svg width="25" height="25" viewBox="0 0 25 25" fill="none" xmlns="http://www.w3.org/2000/svg">
<rect width="25" height="25" stroke="black"/>
<path d="M19.8437 5.11459C18.8886 4.15012 17.7511 3.38539 16.4974 2.86497C15.2437 2.34455 13.899 2.07884 12.5417 2.08334C6.85416 2.08334 2.21875 6.71876 2.21875 12.4063C2.21875 14.2292 2.69791 16 3.59375 17.5625L2.13541 22.9167L7.60416 21.4792C9.11458 22.3021 10.8125 22.7396 12.5417 22.7396C18.2292 22.7396 22.8646 18.1042 22.8646 12.4167C22.8646 9.65626 21.7917 7.0625 19.8437 5.11459ZM12.5417 20.9896C11 20.9896 9.48958 20.5729 8.16666 19.7917L7.85416 19.6042L4.60416 20.4583L5.46875 17.2917L5.26041 16.9688C4.40369 15.6011 3.94888 14.0201 3.94791 12.4063C3.94791 7.67709 7.80208 3.82292 12.5312 3.82292C14.8229 3.82292 16.9792 4.71876 18.5937 6.34376C19.3933 7.13945 20.027 8.08599 20.4579 9.12847C20.8889 10.171 21.1085 11.2886 21.1042 12.4167C21.125 17.1458 17.2708 20.9896 12.5417 20.9896ZM17.25 14.5729C16.9896 14.4479 15.7187 13.8229 15.4896 13.7292C15.25 13.6458 15.0833 13.6042 14.9062 13.8542C14.7292 14.1146 14.2396 14.6979 14.0937 14.8646C13.9479 15.0417 13.7917 15.0625 13.5312 14.9271C13.2708 14.8021 12.4375 14.5208 11.4583 13.6458C10.6875 12.9583 10.1771 12.1146 10.0208 11.8542C9.875 11.5938 10 11.4583 10.1354 11.3229C10.25 11.2083 10.3958 11.0208 10.5208 10.875C10.6458 10.7292 10.6979 10.6146 10.7812 10.4479C10.8646 10.2708 10.8229 10.125 10.7604 10C10.6979 9.87501 10.1771 8.60417 9.96875 8.08334C9.76041 7.58334 9.54166 7.64584 9.38541 7.63542H8.88541C8.70833 7.63542 8.4375 7.69792 8.19791 7.95834C7.96875 8.21875 7.30208 8.84376 7.30208 10.1146C7.30208 11.3854 8.22916 12.6146 8.35416 12.7813C8.47916 12.9583 10.1771 15.5625 12.7604 16.6771C13.375 16.9479 13.8542 17.1042 14.2292 17.2188C14.8437 17.4167 15.4062 17.3854 15.8542 17.3229C16.3542 17.25 17.3854 16.6979 17.5937 16.0938C17.8125 15.4896 17.8125 14.9792 17.7396 14.8646C17.6667 14.75 17.5104 14.6979 17.25 14.5729Z" fill="black"/>
</svg>
