<svg width="19" height="18" viewBox="0 0 19 18" fill="none" xmlns="http://www.w3.org/2000/svg">
<path d="M15.6687 2.7963C14.8665 1.98599 13.911 1.34351 12.8579 0.906347C11.8048 0.469182 10.6752 0.24608 9.535 0.250052C4.7575 0.250052 0.863747 4.1438 0.863747 8.9213C0.863747 10.4526 1.26625 11.9401 2.01875 13.2526L0.793747 17.7501L5.3875 16.5426C6.65625 17.2338 8.0825 17.6013 9.535 17.6013C14.3125 17.6013 18.2062 13.7076 18.2062 8.93005C18.2062 6.6113 17.305 4.43255 15.6687 2.7963ZM9.535 16.1313C8.24 16.1313 6.97125 15.7813 5.86 15.1251L5.5975 14.9676L2.8675 15.6851L3.59375 13.0251L3.41875 12.7538C2.69927 11.6049 2.31724 10.2769 2.31625 8.9213C2.31625 4.9488 5.55375 1.7113 9.52625 1.7113C11.4512 1.7113 13.2625 2.4638 14.6187 3.8288C15.2903 4.49727 15.8225 5.29238 16.1845 6.16805C16.5464 7.04372 16.731 7.98252 16.7275 8.93005C16.745 12.9026 13.5075 16.1313 9.535 16.1313ZM13.49 10.7413C13.2712 10.6363 12.2037 10.1113 12.0112 10.0326C11.81 9.96255 11.67 9.92755 11.5212 10.1376C11.3725 10.3563 10.9612 10.8463 10.8387 10.9863C10.7162 11.1351 10.585 11.1526 10.3662 11.0388C10.1475 10.9338 9.4475 10.6976 8.625 9.96255C7.9775 9.38505 7.54875 8.6763 7.4175 8.45755C7.295 8.2388 7.4 8.12505 7.51375 8.0113C7.61 7.91505 7.7325 7.75755 7.8375 7.63505C7.9425 7.51255 7.98625 7.4163 8.05625 7.2763C8.12625 7.12755 8.09125 7.00505 8.03875 6.90005C7.98625 6.79505 7.54875 5.72755 7.37375 5.29005C7.19875 4.87005 7.015 4.92255 6.88375 4.9138H6.46375C6.315 4.9138 6.0875 4.9663 5.88625 5.18505C5.69375 5.4038 5.13375 5.9288 5.13375 6.9963C5.13375 8.0638 5.9125 9.0963 6.0175 9.2363C6.1225 9.38505 7.54875 11.5726 9.71875 12.5088C10.235 12.7363 10.6375 12.8676 10.9525 12.9638C11.4687 13.1301 11.9412 13.1038 12.3175 13.0513C12.7375 12.9901 13.6037 12.5263 13.7787 12.0188C13.9625 11.5113 13.9625 11.0826 13.9012 10.9863C13.84 10.8901 13.7087 10.8463 13.49 10.7413Z" fill="#666666"/>
</svg>
