<svg width="35" height="35" viewBox="0 0 35 35" fill="none" xmlns="http://www.w3.org/2000/svg">
<path d="M27.7814 7.16039C26.4442 5.81013 24.8517 4.73951 23.0965 4.01092C21.3414 3.28233 19.4588 2.91035 17.5585 2.91664C9.596 2.91664 3.10641 9.40623 3.10641 17.3687C3.10641 19.9208 3.77725 22.4 5.03141 24.5875L2.98975 32.0833L10.646 30.0708C12.7606 31.2229 15.1377 31.8354 17.5585 31.8354C25.521 31.8354 32.0106 25.3458 32.0106 17.3833C32.0106 13.5187 30.5085 9.88748 27.7814 7.16039ZM17.5585 29.3854C15.4002 29.3854 13.2856 28.8021 11.4335 27.7083L10.996 27.4458L6.446 28.6416L7.65641 24.2083L7.36475 23.7562C6.16534 21.8415 5.52859 19.6281 5.52725 17.3687C5.52725 10.7479 10.9231 5.35206 17.5439 5.35206C20.7522 5.35206 23.771 6.60623 26.0314 8.88123C27.1509 9.99519 28.038 11.3204 28.6413 12.7798C29.2446 14.2393 29.5521 15.8041 29.546 17.3833C29.5752 24.0041 24.1793 29.3854 17.5585 29.3854ZM24.1502 20.4021C23.7856 20.2271 22.0064 19.3521 21.6856 19.2208C21.3502 19.1041 21.1168 19.0458 20.8689 19.3958C20.621 19.7604 19.9356 20.5771 19.7314 20.8104C19.5272 21.0583 19.3085 21.0875 18.9439 20.8979C18.5793 20.7229 17.4127 20.3291 16.0418 19.1041C14.9627 18.1416 14.2481 16.9604 14.0293 16.5958C13.8252 16.2312 14.0002 16.0416 14.1897 15.8521C14.3502 15.6916 14.5543 15.4291 14.7293 15.225C14.9043 15.0208 14.9772 14.8604 15.0939 14.6271C15.2106 14.3791 15.1522 14.175 15.0647 14C14.9772 13.825 14.2481 12.0458 13.9564 11.3166C13.6647 10.6166 13.3585 10.7041 13.1397 10.6896H12.4397C12.1918 10.6896 11.8127 10.7771 11.4772 11.1416C11.1564 11.5062 10.2231 12.3812 10.2231 14.1604C10.2231 15.9396 11.521 17.6604 11.696 17.8937C11.871 18.1416 14.2481 21.7875 17.8647 23.3479C18.7252 23.7271 19.396 23.9458 19.921 24.1062C20.7814 24.3833 21.5689 24.3396 22.196 24.2521C22.896 24.15 24.3397 23.3771 24.6314 22.5312C24.9377 21.6854 24.9377 20.9708 24.8356 20.8104C24.7335 20.65 24.5147 20.5771 24.1502 20.4021Z" fill="white"/>
</svg>
