<svg width="19" height="19" viewBox="0 0 19 19" fill="none" xmlns="http://www.w3.org/2000/svg">
<path d="M15.6688 3.2963C14.8666 2.48599 13.911 1.84351 12.8579 1.40635C11.8048 0.969182 10.6752 0.74608 9.53501 0.750052C4.75751 0.750052 0.863762 4.6438 0.863762 9.4213C0.863762 10.9526 1.26626 12.4401 2.01876 13.7526L0.793762 18.2501L5.38751 17.0426C6.65626 17.7338 8.08251 18.1013 9.53501 18.1013C14.3125 18.1013 18.2063 14.2076 18.2063 9.43005C18.2063 7.1113 17.305 4.93255 15.6688 3.2963ZM9.53501 16.6313C8.24001 16.6313 6.97126 16.2813 5.86001 15.6251L5.59751 15.4676L2.86751 16.1851L3.59376 13.5251L3.41876 13.2538C2.69929 12.1049 2.31726 10.7769 2.31626 9.4213C2.31626 5.4488 5.55376 2.2113 9.52626 2.2113C11.4513 2.2113 13.2625 2.9638 14.6188 4.3288C15.2903 4.99727 15.8225 5.79238 16.1845 6.66805C16.5465 7.54372 16.731 8.48252 16.7275 9.43005C16.745 13.4026 13.5075 16.6313 9.53501 16.6313ZM13.49 11.2413C13.2713 11.1363 12.2038 10.6113 12.0113 10.5326C11.81 10.4626 11.67 10.4276 11.5213 10.6376C11.3725 10.8563 10.9613 11.3463 10.8388 11.4863C10.7163 11.6351 10.585 11.6526 10.3663 11.5388C10.1475 11.4338 9.44751 11.1976 8.62501 10.4626C7.97751 9.88505 7.54876 9.1763 7.41751 8.95755C7.29501 8.7388 7.40001 8.62505 7.51376 8.5113C7.61001 8.41505 7.73251 8.25755 7.83751 8.13505C7.94251 8.01255 7.98626 7.9163 8.05626 7.7763C8.12626 7.62755 8.09126 7.50505 8.03876 7.40005C7.98626 7.29505 7.54876 6.22755 7.37376 5.79005C7.19876 5.37005 7.01501 5.42255 6.88376 5.4138H6.46376C6.31501 5.4138 6.08751 5.4663 5.88626 5.68505C5.69376 5.9038 5.13376 6.4288 5.13376 7.4963C5.13376 8.5638 5.91251 9.5963 6.01751 9.7363C6.12251 9.88505 7.54876 12.0726 9.71876 13.0088C10.235 13.2363 10.6375 13.3676 10.9525 13.4638C11.4688 13.6301 11.9413 13.6038 12.3175 13.5513C12.7375 13.4901 13.6038 13.0263 13.7788 12.5188C13.9625 12.0113 13.9625 11.5826 13.9013 11.4863C13.84 11.3901 13.7088 11.3463 13.49 11.2413Z" fill="white"/>
</svg>
