<svg width="67" height="88" viewBox="0 0 67 88" fill="none" xmlns="http://www.w3.org/2000/svg">
<path d="M12.5091 61.9425C11.7687 61.2551 11.0476 60.5583 10.3457 59.8423L0 86.6864L1.69224 86.8678L12.5475 61.9711V61.9616H12.5283C12.5187 61.952 12.5187 61.9425 12.5091 61.9425Z" fill="#50A6AA"/>
<path d="M66.2082 86.6238L40.4804 18.8568L40.007 17.6073C44.741 15.8581 49.3397 14.3588 53.2525 13.1478L53.4747 13.984L54.3732 17.3574L62.5466 10.2357C62.5466 10.2357 52.4313 8.94783 52.1028 8.81328L52.8951 11.8023L53.1366 12.7057C48.8953 13.7533 44.2483 14.9547 39.5432 16.3771L39.0698 15.1277L33.3214 0L25.8436 19.4334L25.0127 21.5863C16.7234 25.2096 9.55477 29.8133 5.86418 35.7913C1.83545 43.1437 4.90772 50.3904 11.3614 57.0508C12.115 57.8293 12.9169 58.6078 13.7574 59.3671C22.6361 67.4115 36.0072 74.4948 46.8858 79.7136C48.2963 80.3863 49.6585 81.0303 50.9628 81.6454C50.9628 81.655 50.9628 81.6742 50.9725 81.6838C55.3007 83.9039 58.3923 85.2783 60.6047 86.1145C60.7786 86.201 60.9525 86.2779 61.1168 86.3547C61.1168 86.3547 61.1264 86.3259 61.1264 86.2971C66.5464 88.2385 66.2082 86.6238 66.2082 86.6238ZM16.0664 54.8019C15.052 53.9273 14.1149 53.0431 13.255 52.1396C10.946 49.7177 9.22629 47.1707 8.33745 44.5277C6.42453 36.8005 13.8057 30.1305 23.8051 24.7387L22.752 27.4874L18.9938 37.2618L14.2695 49.5447C15.2259 50.5154 16.279 51.4284 17.361 52.2742L24.9161 37.3003L32.1427 22.9799L52.3637 74.0815C51.4652 73.7163 50.5377 73.3511 49.6006 72.9666C38.1907 68.3149 24.6166 62.1543 16.0664 54.8019Z" fill="#50A6AA"/>
</svg>
